<?xml version="1.0" encoding="utf-8"?>
<!-- Generator: Adobe Illustrator 23.0.1, SVG Export Plug-In . SVG Version: 6.00 Build 0)  -->
<svg version="1.1" id="Layer_1" xmlns="http://www.w3.org/2000/svg" xmlns:xlink="http://www.w3.org/1999/xlink" x="0px" y="0px"
	 viewBox="0 0 1920 1080" style="enable-background:new 0 0 1920 1080;" xml:space="preserve">
<style type="text/css">
	.st0{fill:#4B2C86;}
	.st1{opacity:0.1;fill:#020203;enable-background:new    ;}
	.st2{fill:#F2F2F2;}
</style>
<path class="st0" d="M1966.2,1031.7c-27.3,52.6-64.4,87.4-106.1,109.5c-12,6.4-24.6,11.8-37.5,16.3c-75.9,26.3-160.8,19.3-227.5,5.4
	c-46.8-9.8-94.3-15.8-142-18c-13.6-0.6-27.2-0.9-40.9-0.9c-21,0-42.1,0.8-63.1,2.3c-136.7,10-346.3-8.8-438.5-195.5l230.8-447
	l85.9,220.5l27.4,70.4l75.5-103.7l39-53.5l177.6,203.7l50.2-110.9l347.6,283.7l19.4,15.8L1966.2,1031.7z"/>
<polygon class="st1" points="1105.4,647.2 1140.9,569.4 1190,682.7 1147.7,600.8 "/>
<path class="st1" d="M1449.9,1145c-13.6-0.6-27.2-0.9-40.9-0.9l-157.6-349.2L1449.9,1145z"/>
<polygon class="st1" points="1327,691.2 1366,660.8 1543.4,865.5 1363.3,690.9 "/>
<path class="st1" d="M1856.9,1141.2c-12,6.4-24.6,11.8-37.5,16.3l-275.8-316.2L1856.9,1141.2z"/>
<g>
	<circle class="st2" cx="1322.6" cy="283.8" r="4.1"/>
	<circle class="st2" cx="1209.3" cy="424.4" r="4.1"/>
	<circle class="st2" cx="1486.3" cy="448.9" r="2.7"/>
	<circle class="st2" cx="913.2" cy="510.3" r="2.7"/>
	<circle class="st2" cx="1502.7" cy="279.7" r="2.7"/>
	<circle class="st2" cx="1671.8" cy="410.7" r="2.7"/>
	<circle class="st2" cx="1838.3" cy="618.1" r="2.7"/>
	<polygon class="st2" points="1082.4,310.1 1078.7,310.1 1078.7,306.3 1076.6,306.3 1076.6,310.1 1072.9,310.1 1072.9,312.1 
		1076.6,312.1 1076.6,315.9 1078.7,315.9 1078.7,312.1 1082.4,312.1 	"/>
</g>
<path class="st0" d="M1198.6,1049.4c-27.3,52.6-64.4,87.4-106.1,109.5c-12,6.4-24.6,11.8-37.5,16.3c-75.9,26.3-160.8,19.3-227.5,5.4
	c-46.8-9.8-94.3-15.8-142-18c-13.6-0.6-27.2-0.9-40.9-0.9c-21,0-42.1,0.8-63.1,2.3c-136.7,10-346.3-8.8-438.5-195.5l230.8-447
	l85.9,220.5l27.4,70.4l75.5-103.7l39-53.5l177.6,203.7l50.2-110.9l347.6,283.7l19.4,15.8L1198.6,1049.4z"/>
<polygon class="st1" points="337.8,665 373.3,587.2 422.4,700.4 380.1,618.6 "/>
<path class="st1" d="M682.3,1162.7c-13.6-0.6-27.2-0.9-40.9-0.9L483.9,812.6L682.3,1162.7z"/>
<polygon class="st1" points="559.4,708.9 598.4,678.6 775.8,883.3 595.7,708.6 "/>
<path class="st1" d="M1089.3,1159c-12,6.4-24.6,11.8-37.5,16.3L776.1,859.1L1089.3,1159z"/>
<path class="st0" d="M849.6,1073c-27.3,52.6-64.4,87.4-106.1,109.5c-12,6.4-24.6,11.8-37.5,16.3c-75.9,26.3-160.8,19.3-227.5,5.4
	c-46.8-9.8-94.3-15.8-142-18c-13.6-0.6-27.2-0.9-40.9-0.9c-21,0-42.1,0.8-63.1,2.3c-136.7,10-346.3-8.8-438.5-195.5l230.8-447
	l85.9,220.5l27.4,70.4l75.5-103.7l39-53.5l177.6,203.7l50.2-110.9l347.6,283.7l19.4,15.8L849.6,1073z"/>
<polygon class="st1" points="-11.2,688.5 24.3,610.7 73.4,724 31.1,642.1 "/>
<path class="st1" d="M333.3,1186.3c-13.6-0.6-27.2-0.9-40.9-0.9L134.9,836.1L333.3,1186.3z"/>
<polygon class="st1" points="210.4,732.5 249.4,702.1 426.8,906.8 246.7,732.2 "/>
<path class="st1" d="M740.3,1182.5c-12,6.4-24.6,11.8-37.5,16.3L427.1,882.6L740.3,1182.5z"/>
<g>
	<circle class="st2" cx="524.7" cy="337.9" r="4.1"/>
	<circle class="st2" cx="411.4" cy="478.4" r="4.1"/>
	<circle class="st2" cx="688.4" cy="503" r="2.7"/>
	<circle class="st2" cx="115.3" cy="564.4" r="2.7"/>
	<circle class="st2" cx="704.8" cy="333.8" r="2.7"/>
	<circle class="st2" cx="873.9" cy="464.8" r="2.7"/>
	<circle class="st2" cx="1040.4" cy="672.2" r="2.7"/>
	<polygon class="st2" points="284.5,364.2 280.8,364.2 280.8,360.4 278.7,360.4 278.7,364.2 275,364.2 275,366.2 278.7,366.2 
		278.7,370 280.8,370 280.8,366.2 284.5,366.2 	"/>
</g>
<g>
	<circle class="st2" cx="984.5" cy="214" r="4.1"/>
	<circle class="st2" cx="1097.7" cy="73.5" r="4.1"/>
	<circle class="st2" cx="820.7" cy="48.9" r="2.7"/>
	<circle class="st2" cx="1393.8" cy="-12.5" r="2.7"/>
	<circle class="st2" cx="804.4" cy="218.1" r="2.7"/>
	<circle class="st2" cx="635.2" cy="87.1" r="2.7"/>
	<circle class="st2" cx="468.7" cy="-120.2" r="2.7"/>
	<polygon class="st2" points="1224.6,187.8 1228.4,187.8 1228.4,191.5 1230.4,191.5 1230.4,187.8 1234.1,187.8 1234.1,185.7 
		1230.4,185.7 1230.4,182 1228.4,182 1228.4,185.7 1224.6,185.7 	"/>
</g>
<g>
	<circle class="st2" cx="-20.4" cy="210.1" r="4.1"/>
	<circle class="st2" cx="92.8" cy="69.6" r="4.1"/>
	<circle class="st2" cx="-184.1" cy="45" r="2.7"/>
	<circle class="st2" cx="388.9" cy="-16.4" r="2.7"/>
	<circle class="st2" cx="-200.5" cy="214.2" r="2.7"/>
	<circle class="st2" cx="-369.7" cy="83.2" r="2.7"/>
	<circle class="st2" cx="-536.1" cy="-124.1" r="2.7"/>
	<polygon class="st2" points="219.7,183.9 223.5,183.9 223.5,187.6 225.5,187.6 225.5,183.9 229.3,183.9 229.3,181.8 225.5,181.8 
		225.5,178.1 223.5,178.1 223.5,181.8 219.7,181.8 	"/>
</g>
<g>
	<circle class="st2" cx="2109.5" cy="329.3" r="4.1"/>
	<circle class="st2" cx="2222.8" cy="188.8" r="4.1"/>
	<circle class="st2" cx="1945.8" cy="164.3" r="2.7"/>
	<circle class="st2" cx="2518.9" cy="102.9" r="2.7"/>
	<circle class="st2" cx="1929.5" cy="333.4" r="2.7"/>
	<circle class="st2" cx="1760.3" cy="202.5" r="2.7"/>
	<circle class="st2" cx="1593.8" cy="-4.9" r="2.7"/>
	<polygon class="st2" points="2349.7,303.1 2353.4,303.1 2353.4,306.8 2355.5,306.8 2355.5,303.1 2359.2,303.1 2359.2,301.1 
		2355.5,301.1 2355.5,297.3 2353.4,297.3 2353.4,301.1 2349.7,301.1 	"/>
</g>
</svg>
