<?xml version="1.0" encoding="utf-8"?>
<!-- Generator: Adobe Illustrator 23.0.1, SVG Export Plug-In . SVG Version: 6.00 Build 0)  -->
<svg version="1.1" id="Layer_1" xmlns="http://www.w3.org/2000/svg" xmlns:xlink="http://www.w3.org/1999/xlink" x="0px" y="0px"
	 viewBox="0 0 1920 1080" style="enable-background:new 0 0 1920 1080;" xml:space="preserve">
<style type="text/css">
	.st0{fill:#36393F;}
	.st1{fill:#631DC2;}
</style>
<rect x="-15.6" y="-16.4" class="st0" width="1951.9" height="1107"/>
<path class="st1" d="M2142,905.7c-97.7,200.9-267.8,297-331.6,331.6c-407.8,221.3-879.4,39.5-877.8,2.6
	c0.9-20.4,81.1-1.7,174.7-65.1c190.4-128.9,99.3-371.1,276.4-481.2c90.8-56.5,193.8-41.9,227.1-123.9c17.3-42.7-0.3-71.9,28.6-115.9
	c41-62.5,119.1-68.5,115.9-90.5c-2.8-19.2-61.4-7.7-104.8-50.8c-33-32.7-25.1-65.2-47.6-71.5c-34.7-9.7-57,66.1-123.9,79.4
	c-46.1,9.1-97.3-14.5-127.1-44.5c-52.1-52.5-31.7-117.9-77.8-136.6c-25.8-10.4-56,0.3-73.1,6.4c-39.8,14.1-37.3,34.6-63.5,41.3
	c-52.4,13.4-89.1-59.2-144.5-47.6c-26.3,5.5-26.6,23.6-50.8,38.1c-94.9,56.7-243.8-130.1-382.8-81c-39.1,13.8-26.6,28.3-74.6,49.2
	c-94.8,41.4-160.8-7.5-295.4-23.8C6.6,99.7-93.6,160-125.2,112.3c-33.2-50.1,12.5-134,19.1-146.1C54.2-328.7,876.5-412,1247-167.2
	c53.2,35.2,189.8,138.3,374.8,136.6c39-0.4,93.4-31,173.3-23.2c0,0,78.6,7.7,155.4,51.8C2115.3,92.5,2322.7,534.3,2142,905.7z"/>
</svg>
