<?xml version="1.0" encoding="utf-8"?>
<!-- Generator: Adobe Illustrator 23.0.1, SVG Export Plug-In . SVG Version: 6.00 Build 0)  -->
<svg version="1.1" id="Layer_1" xmlns="http://www.w3.org/2000/svg" xmlns:xlink="http://www.w3.org/1999/xlink" x="0px" y="0px"
	 viewBox="0 0 1920 1080" style="enable-background:new 0 0 1920 1080;" xml:space="preserve">
<style type="text/css">
	.st0{fill:#452745;}
	.st1{fill:#975999;}
	.st2{fill:#864789;}
</style>
<g>
	<rect class="st0" width="1920" height="1080"/>
</g>
<path class="st1" d="M1920,1080V0h-32.8c-32.85,149.68-77.91,455.74-320.2,737c-162.48,188.62-340.27,280.88-457.3,343H1920z"/>
<path class="st2" d="M1090.03,1080h313.53c175.45-72.26,371.22-178.32,516.45-313.99V0h-417.5
	c66.22,97.32,114.38,210.05,115.36,337.07C1620.49,681.71,1274.29,942.01,1090.03,1080z"/>
<path class="st1" d="M1588-44H648H0v65.16C149.03,68.45,442.98,73.82,724,79c441.3,8.13,617.26-80.11,778,52
	c145.81,119.84,188.39,370.4,226,571c32.42,172.92,31.03,309.4,70,315c37.59,5.4,86.26-114.78,122-219c0-280.67,0-561.33,0-842H1588
	z"/>
</svg>
