<?xml version="1.0" encoding="utf-8"?>
<!-- Generator: Adobe Illustrator 23.0.1, SVG Export Plug-In . SVG Version: 6.00 Build 0)  -->
<svg version="1.1" id="Layer_1" xmlns="http://www.w3.org/2000/svg" xmlns:xlink="http://www.w3.org/1999/xlink" x="0px" y="0px"
	 viewBox="0 0 500 500" style="enable-background:new 0 0 500 500;" xml:space="preserve">
<style type="text/css">
	.st0{fill:#F47A62;}
	.st1{fill:#A21C36;}
</style>
<rect x="-2.5" y="-2.5" class="st0" width="507.2" height="507.2"/>
<g>
	<path class="st1" d="M346.2,212.4l-4.4,7.8c-1.6,2.9-5,4.1-8,3c-6.3-2.4-12-5.8-17.1-10.2c-2.4-2.1-3.1-5.7-1.5-8.6l4.4-7.8
		c-3.7-4.4-6.5-9.5-8.4-15h-8.8c-3.2,0-6-2.3-6.5-5.6c-1.1-6.6-1.1-13.4,0-20.3c0.5-3.3,3.3-5.7,6.5-5.7h8.8
		c1.9-5.5,4.8-10.6,8.4-15l-4.4-7.8c-1.6-2.8-1-6.5,1.5-8.6c5-4.3,10.8-7.8,17.1-10.2c3-1.1,6.4,0.1,8,3l4.4,7.8
		c5.6-1,11.3-1,16.8,0l4.4-7.8c1.6-2.9,5-4.1,8-3c6.3,2.4,12,5.8,17.1,10.2c2.4,2.1,3.1,5.7,1.5,8.6l-4.4,7.8
		c3.7,4.4,6.5,9.5,8.4,15h8.8c3.2,0,6,2.3,6.5,5.6c1.1,6.6,1.1,13.4,0,20.3c-0.5,3.3-3.3,5.7-6.5,5.7h-8.8c-1.9,5.5-4.8,10.6-8.4,15
		l4.4,7.8c1.6,2.8,1,6.5-1.5,8.6c-5,4.3-10.8,7.8-17.1,10.2c-3,1.1-6.4-0.1-8-3l-4.4-7.8C357.6,213.4,351.8,213.4,346.2,212.4z
		 M340.7,180.2c20.5,16.2,43.8-7.8,28.1-28.9C348.3,135.2,324.9,159.2,340.7,180.2z M279.4,264.3l17.9,9.2c5.4,3.2,7.7,9.9,5.6,15.9
		c-4.7,13.2-14,25.4-22.6,36c-3.9,4.9-10.7,6.1-16.1,2.9l-15.5-9.2c-8.5,7.5-18.4,13.4-29.2,17.3v18.4c0,6.3-4.4,11.8-10.5,12.9
		c-13.1,2.3-26.8,2.4-40.3,0c-6.1-1.1-10.6-6.5-10.6-12.9v-18.4c-10.8-3.9-20.7-9.8-29.2-17.3l-15.5,9.1c-5.3,3.2-12.2,2-16.1-2.9
		c-8.6-10.6-17.7-22.7-22.4-35.9c-2.1-6,0.2-12.7,5.6-15.9l17.7-9.2c-2.1-11.4-2.1-23.2,0-34.6l-17.7-9.2c-5.4-3.2-7.8-9.9-5.6-15.8
		c4.7-13.2,13.8-25.4,22.4-36c3.9-4.9,10.7-6.1,16.1-2.9l15.5,9.2c8.5-7.5,18.4-13.4,29.2-17.3v-18.4c0-6.3,4.4-11.7,10.4-12.8
		c13.1-2.3,26.8-2.4,40.4-0.1c6.1,1.1,10.6,6.5,10.6,12.9v18.4c10.8,3.9,20.7,9.8,29.2,17.3l15.5-9.2c5.3-3.2,12.2-2,16.1,2.9
		c8.6,10.6,17.6,22.7,22.4,36c2.1,6,0.1,12.7-5.3,15.9l-17.9,9.2C281.5,241.1,281.5,252.9,279.4,264.3z M216.9,275.9
		c31.5-42.1-15.3-90.1-56.2-57.8C129.3,260.2,176,308.2,216.9,275.9z M346.2,375.7l-4.4,7.8c-1.6,2.9-5,4.1-8,3
		c-6.3-2.4-12-5.8-17.1-10.2c-2.4-2.1-3.1-5.7-1.5-8.6l4.4-7.8c-3.7-4.4-6.5-9.5-8.4-15h-8.8c-3.2,0-6-2.3-6.5-5.6
		c-1.1-6.6-1.1-13.4,0-20.3c0.5-3.3,3.3-5.7,6.5-5.7h8.8c1.9-5.5,4.8-10.6,8.4-15l-4.4-7.8c-1.6-2.8-1-6.5,1.5-8.6
		c5-4.3,10.8-7.8,17.1-10.2c3-1.1,6.4,0.1,8,3l4.4,7.8c5.6-1,11.3-1,16.8,0l4.4-7.8c1.6-2.9,5-4.1,8-3c6.3,2.4,12,5.8,17.1,10.2
		c2.4,2.1,3.1,5.7,1.5,8.6l-4.4,7.8c3.7,4.4,6.5,9.5,8.4,15h8.8c3.2,0,6,2.3,6.5,5.6c1.1,6.6,1.1,13.4,0,20.3
		c-0.5,3.3-3.3,5.7-6.5,5.7h-8.8c-1.9,5.5-4.8,10.6-8.4,15l4.4,7.8c1.6,2.8,1,6.5-1.5,8.6c-5,4.3-10.8,7.8-17.1,10.2
		c-3,1.1-6.4-0.1-8-3l-4.4-7.8C357.6,376.7,351.8,376.7,346.2,375.7z M340.7,343.5c20.5,16.2,43.8-7.8,28.1-28.9
		C348.3,298.5,324.9,322.5,340.7,343.5L340.7,343.5z"/>
</g>
</svg>
