<svg data-v-d3f97b9e="" xmlns="http://www.w3.org/2000/svg" viewBox="0 0 358 96"><!----><!----><!----><g data-v-d3f97b9e="" id="4c4f938f-c76f-49b5-acda-105a23d75f2d" fill="white" transform="matrix(4.8426148779193,0,0,4.8426148779193,81.536677716621,0.08763854041901453)"><path d="M9.17 10.25L8.25 10.12C7.99 11.80 7 12.84 5.05 12.84C2.70 12.84 1.60 10.98 1.60 8.69C1.60 6.61 2.56 4.48 5.19 4.48C7.08 4.48 8.04 5.70 8.20 7.01L9.11 6.90C8.99 5.38 7.81 3.64 5.21 3.64C1.99 3.64 0.66 6.17 0.66 8.71C0.66 11.61 2.27 13.66 5.05 13.66C7.52 13.66 8.86 12.33 9.17 10.25ZM16.86 13.48L16.77 12.78C16.65 12.81 16.51 12.82 16.34 12.82C16.11 12.82 15.95 12.74 15.83 12.53C15.74 12.36 15.72 12.05 15.72 11.69L15.72 9.30C15.72 8.72 15.72 8.22 15.58 7.76C15.30 6.78 14.50 6.33 13.16 6.33C11.20 6.33 10.22 7.22 10.22 8.83L11.03 8.88C11.09 7.29 12.14 7.13 13.10 7.13C14.17 7.13 14.55 7.60 14.73 7.98C14.83 8.20 14.90 8.71 14.90 9.20L14.90 9.49L14.07 9.49C12.39 9.49 11.44 9.69 10.85 10.01C10.26 10.33 9.94 10.88 9.94 11.62C9.94 12.84 10.82 13.66 12.43 13.66C13.45 13.66 14.50 13.27 14.94 12.36C14.99 13.06 15.23 13.58 16.14 13.58C16.35 13.58 16.65 13.55 16.86 13.48ZM14.90 10.18L14.90 10.89C14.90 11.17 14.83 11.61 14.66 11.91C14.41 12.35 13.72 12.92 12.56 12.92C11.68 12.92 10.78 12.57 10.78 11.56C10.78 11.00 11.12 10.63 11.61 10.46C12.12 10.28 12.95 10.18 14.08 10.18ZM18.90 13.50L18.90 9.83C18.90 9.17 18.98 8.60 19.26 8.15C19.54 7.67 20.24 7.14 21.11 7.14C21.84 7.14 22.16 7.34 22.46 7.64C22.74 7.92 22.92 8.53 22.92 9.46L22.92 13.50L23.77 13.50L23.77 9.74C23.77 9.06 23.90 8.55 24.16 8.11C24.44 7.64 25.10 7.14 25.94 7.14C26.66 7.14 27.03 7.35 27.31 7.67C27.59 7.98 27.76 8.58 27.76 9.51L27.76 13.50L28.62 13.50L28.62 9.37C28.62 8.32 28.45 7.62 28.15 7.21C27.75 6.65 27.12 6.34 26.18 6.34C24.84 6.34 23.93 7.13 23.63 8.02C23.37 6.87 22.60 6.34 21.39 6.34C20.19 6.34 19.17 7.04 18.90 7.91L18.90 6.51L18.06 6.51L18.06 13.50ZM31.64 16.03L31.64 12.21C32.05 13.05 32.90 13.66 34.24 13.66C36.13 13.66 37.49 12.35 37.49 9.98C37.49 7.69 36.25 6.33 34.41 6.33C32.97 6.33 31.99 7.10 31.64 7.95L31.64 6.51L30.80 6.51L30.80 16.03ZM31.63 9.95C31.63 8.16 32.75 7.08 34.22 7.08C35.60 7.08 36.62 8.13 36.62 10.00C36.62 11.91 35.52 12.88 34.17 12.88C32.73 12.88 31.63 12.05 31.63 9.95ZM40.38 13.50L40.38 7.24L42.01 7.24L42.01 6.51L40.38 6.51L40.38 6.01C40.38 5.47 40.46 5.11 40.63 4.89C40.84 4.62 41.17 4.49 41.61 4.49C41.86 4.49 42.13 4.55 42.31 4.62L42.49 3.82C42.31 3.77 41.90 3.70 41.50 3.70C40.95 3.70 40.40 3.86 40.03 4.30C39.75 4.61 39.52 5.14 39.52 6.01L39.52 6.51L38.44 6.51L38.44 7.24L39.52 7.24L39.52 13.50ZM44.17 13.50L44.17 6.51L43.33 6.51L43.33 13.50ZM44.23 5.11L44.23 3.82L43.27 3.82L43.27 5.11ZM47.25 13.50L47.25 9.95C47.25 9.14 47.33 8.60 47.59 8.15C47.85 7.67 48.40 7.13 49.24 7.13C49.48 7.13 49.73 7.17 49.94 7.22L50.11 6.43C49.87 6.36 49.56 6.30 49.31 6.30C48.15 6.30 47.43 7.11 47.25 7.94L47.25 6.51L46.41 6.51L46.41 13.50ZM56.95 11.38L56.13 11.20C55.87 12.15 55.03 12.88 53.77 12.88C52.74 12.88 51.25 12.32 51.24 10.19L56.98 10.19C56.98 7.62 55.76 6.33 53.70 6.33C51.84 6.33 50.34 7.71 50.34 9.97C50.34 12.19 51.58 13.66 53.75 13.66C55.45 13.66 56.62 12.71 56.95 11.38ZM51.24 9.51C51.38 7.91 52.44 7.11 53.69 7.11C55.36 7.11 55.99 8.19 56.08 9.51Z"></path></g><!----><g data-v-d3f97b9e="" id="e89ae8a0-a1d4-4898-9477-5ef4b3b44794" transform="matrix(1.0297222561306423,0,0,1.0297222561306423,-17.887429648810127,-3.845385929812373)" stroke="none" fill="white"><path d="M27.984 42.838C45.23 25.729 47.746 11.361 41.939 4.395c0 0 43.898 18.04 18.077 59.882-4.42 7.105-15.459 15.498-9.688 32.793-.001 0-55.236-15.465-22.344-54.232z"></path><path d="M54.645 96.217c-.944-3.51-5.154-11.154 7.686-26.359 6.861-8.104 11.557-25.906 9.27-30.157 0 0 21.914 28.944-3.447 46.278-15.037 10.304-13.509 10.238-13.509 10.238z"></path></g><!----></svg>