<?xml version="1.0" encoding="utf-8"?>
<!-- Generator: Adobe Illustrator 23.0.1, SVG Export Plug-In . SVG Version: 6.00 Build 0)  -->
<svg version="1.1" id="Layer_1" xmlns="http://www.w3.org/2000/svg" xmlns:xlink="http://www.w3.org/1999/xlink" x="0px" y="0px"
	 viewBox="0 0 358 96" style="enable-background:new 0 0 358 96;" xml:space="preserve">
<style type="text/css">
	.st0{fill:#333333;}
</style>
<g id="c1ee7688-ebb1-4f0a-a200-46dd1c9d9212" transform="matrix(4.8426148779193,0,0,4.8426148779193,81.536677716621,0.08763854041901453)">
	<path class="st0" d="M9.2,10.2l-0.9-0.1C8,11.8,7,12.8,5,12.8c-2.3,0-3.4-1.9-3.4-4.2c0-2.1,1-4.2,3.6-4.2c1.9,0,2.9,1.2,3,2.5
		l0.9-0.1C9,5.4,7.8,3.6,5.2,3.6C2,3.6,0.7,6.2,0.7,8.7c0,2.9,1.6,4.9,4.4,4.9C7.5,13.7,8.9,12.3,9.2,10.2z M16.9,13.5l-0.1-0.7
		c-0.1,0-0.3,0-0.4,0c-0.2,0-0.4-0.1-0.5-0.3c-0.1-0.2-0.1-0.5-0.1-0.8V9.3c0-0.6,0-1.1-0.1-1.5c-0.3-1-1.1-1.4-2.4-1.4
		c-2,0-2.9,0.9-2.9,2.5L11,8.9c0.1-1.6,1.1-1.7,2.1-1.7c1.1,0,1.4,0.5,1.6,0.8c0.1,0.2,0.2,0.7,0.2,1.2v0.3h-0.8
		c-1.7,0-2.6,0.2-3.2,0.5c-0.6,0.3-0.9,0.9-0.9,1.6c0,1.2,0.9,2,2.5,2c1,0,2.1-0.4,2.5-1.3c0.1,0.7,0.3,1.2,1.2,1.2
		C16.3,13.6,16.6,13.5,16.9,13.5z M14.9,10.2v0.7c0,0.3-0.1,0.7-0.2,1c-0.3,0.4-0.9,1-2.1,1c-0.9,0-1.8-0.4-1.8-1.4
		c0-0.6,0.3-0.9,0.8-1.1c0.5-0.2,1.3-0.3,2.5-0.3H14.9z M18.9,13.5V9.8c0-0.7,0.1-1.2,0.4-1.7c0.3-0.5,1-1,1.9-1
		c0.7,0,1,0.2,1.3,0.5c0.3,0.3,0.5,0.9,0.5,1.8v4h0.9V9.7c0-0.7,0.1-1.2,0.4-1.6c0.3-0.5,0.9-1,1.8-1c0.7,0,1.1,0.2,1.4,0.5
		c0.3,0.3,0.5,0.9,0.5,1.8v4h0.9V9.4c0-1.1-0.2-1.7-0.5-2.2c-0.4-0.6-1-0.9-2-0.9c-1.3,0-2.3,0.8-2.6,1.7c-0.3-1.2-1-1.7-2.2-1.7
		c-1.2,0-2.2,0.7-2.5,1.6V6.5h-0.8v7H18.9z M31.6,16v-3.8c0.4,0.8,1.3,1.4,2.6,1.4c1.9,0,3.3-1.3,3.3-3.7c0-2.3-1.2-3.6-3.1-3.6
		c-1.4,0-2.4,0.8-2.8,1.6V6.5h-0.8V16H31.6z M31.6,9.9c0-1.8,1.1-2.9,2.6-2.9c1.4,0,2.4,1,2.4,2.9c0,1.9-1.1,2.9-2.5,2.9
		C32.7,12.9,31.6,12,31.6,9.9z M40.4,13.5V7.2H42V6.5h-1.6V6c0-0.5,0.1-0.9,0.3-1.1c0.2-0.3,0.5-0.4,1-0.4c0.3,0,0.5,0.1,0.7,0.1
		l0.2-0.8c-0.2,0-0.6-0.1-1-0.1c-0.5,0-1.1,0.2-1.5,0.6c-0.3,0.3-0.5,0.8-0.5,1.7v0.5h-1.1v0.7h1.1v6.3H40.4z M44.2,13.5v-7h-0.8v7
		H44.2z M44.2,5.1V3.8h-1v1.3H44.2z M47.2,13.5V9.9c0-0.8,0.1-1.3,0.3-1.8c0.3-0.5,0.8-1,1.7-1c0.2,0,0.5,0,0.7,0.1l0.2-0.8
		c-0.2-0.1-0.5-0.1-0.8-0.1c-1.2,0-1.9,0.8-2.1,1.6V6.5h-0.8v7H47.2z M56.9,11.4l-0.8-0.2c-0.3,0.9-1.1,1.7-2.4,1.7
		c-1,0-2.5-0.6-2.5-2.7H57c0-2.6-1.2-3.9-3.3-3.9c-1.9,0-3.4,1.4-3.4,3.6c0,2.2,1.2,3.7,3.4,3.7C55.4,13.7,56.6,12.7,56.9,11.4z
		 M51.2,9.5c0.1-1.6,1.2-2.4,2.4-2.4c1.7,0,2.3,1.1,2.4,2.4H51.2z"/>
</g>
<g transform="matrix(1.0297222561306423,0,0,1.0297222561306423,-17.887429648810127,-3.845385929812373)">
	<path class="st0" d="M28,42.8c17.2-17.1,19.8-31.5,14-38.4c0,0,43.9,18,18.1,59.9c-4.4,7.1-15.5,15.5-9.7,32.8
		C50.3,97.1-4.9,81.6,28,42.8z"/>
	<path class="st0" d="M54.6,96.2c-0.9-3.5-5.2-11.2,7.7-26.4c6.9-8.1,11.6-25.9,9.3-30.2c0,0,21.9,28.9-3.4,46.3
		C53.1,96.3,54.6,96.2,54.6,96.2z"/>
</g>
</svg>
