<?xml version="1.0" encoding="utf-8"?>
<!-- Generator: Adobe Illustrator 24.0.0, SVG Export Plug-In . SVG Version: 6.00 Build 0)  -->
<svg version="1.1" id="Layer_1" xmlns="http://www.w3.org/2000/svg" xmlns:xlink="http://www.w3.org/1999/xlink" x="0px" y="0px"
	 viewBox="0 0 302.9 75.1" style="enable-background:new 0 0 302.9 75.1;" xml:space="preserve">
<style type="text/css">
	.st0{clip-path:url(#SVGID_2_);}
	.st1{clip-path:url(#SVGID_4_);}
	.st2{clip-path:url(#SVGID_6_);}
	.st3{fill:#1D1234;}
	.st4{clip-path:url(#SVGID_8_);}
	.st5{clip-path:url(#SVGID_10_);}
	.st6{enable-background:new    ;}
</style>
<title>bAsset 1</title>
<g>
	<defs>
		<path id="SVGID_1_" d="M0.9,33.8c0,18.7,15.1,33.8,33.8,33.8c18.7,0,33.8-15.1,33.8-33.8c0-18.7-15.1-33.8-33.8-33.8
			c0,0,0,0-0.1,0C16.1,0.1,0.9,15.2,0.9,33.8"/>
	</defs>
	<clipPath id="SVGID_2_">
		<use xlink:href="#SVGID_1_"  style="overflow:visible;"/>
	</clipPath>
	<g class="st0">
		<g>
			<defs>
				<rect id="SVGID_3_" x="0.9" y="0.1" width="67.6" height="67.6"/>
			</defs>
			<clipPath id="SVGID_4_">
				<use xlink:href="#SVGID_3_"  style="overflow:visible;"/>
			</clipPath>
			<g class="st1">
				
					<image style="overflow:visible;enable-background:new    ;" width="142" height="142" xlink:href="16F63168.png"  transform="matrix(0.48 0 0 0.48 0.48 0)">
				</image>
			</g>
		</g>
	</g>
</g>
<g>
	<defs>
		<rect id="SVGID_5_" x="-13.3" y="-14.1" width="96.1" height="96.1"/>
	</defs>
	<clipPath id="SVGID_6_">
		<use xlink:href="#SVGID_5_"  style="overflow:visible;"/>
	</clipPath>
	<g class="st2">
		<path class="st3" d="M60.9,33.5c0,14.8-11.7,26.9-26.1,26.9S8.6,48.3,8.6,33.5S20.3,6.6,34.7,6.6S60.8,18.6,60.9,33.5"/>
	</g>
</g>
<g>
	<defs>
		<path id="SVGID_7_" d="M23.6,1.9c-5.9,2.1-11.1,5.7-15,10.6c-7.8,9.7-9.8,22.8-5.2,34.3l6.9-2.3l49-33.8C53.7,4.7,46.1,1.1,38,0.3
			C33.1-0.3,28.2,0.3,23.6,1.9"/>
	</defs>
	<clipPath id="SVGID_8_">
		<use xlink:href="#SVGID_7_"  style="overflow:visible;"/>
	</clipPath>
	<g class="st4">
		<g>
			<defs>
				<rect id="SVGID_9_" x="0.3" y="0" width="59" height="46.7"/>
			</defs>
			<clipPath id="SVGID_10_">
				<use xlink:href="#SVGID_9_"  style="overflow:visible;"/>
			</clipPath>
			<g class="st5">
				
					<image style="overflow:visible;enable-background:new    ;" width="124" height="98" xlink:href="16F63169.png"  transform="matrix(0.48 0 0 0.48 0 0)">
				</image>
			</g>
		</g>
	</g>
</g>
<g class="st6">
	<path class="st3" d="M129.7,16.6V4.4h3.8c0.8,0,1.4,0.2,2,0.5s1,0.8,1.3,1.3c0.3,0.6,0.4,1.2,0.4,1.9c0,0.7-0.1,1.3-0.4,1.9
		c-0.3,0.6-0.7,1-1.3,1.3c-0.6,0.3-1.2,0.5-2,0.5h-3v4.9H129.7z M130.5,11h3c0.9,0,1.7-0.3,2.2-0.8c0.5-0.6,0.8-1.3,0.8-2.1
		c0-0.9-0.3-1.6-0.8-2.2s-1.3-0.8-2.2-0.8h-3V11z"/>
</g>
<g class="st6">
	<path class="st3" d="M143.2,16.8c-0.8,0-1.4-0.2-2-0.6c-0.6-0.4-1.1-1-1.4-1.7c-0.3-0.7-0.5-1.5-0.5-2.5c0-0.9,0.2-1.7,0.5-2.5
		s0.8-1.3,1.4-1.7c0.6-0.4,1.3-0.6,2-0.6s1.4,0.2,2,0.6c0.6,0.4,1.1,1,1.4,1.7c0.3,0.7,0.5,1.5,0.5,2.5c0,0.9-0.2,1.7-0.5,2.5
		c-0.3,0.7-0.8,1.3-1.4,1.7C144.6,16.6,144,16.8,143.2,16.8z M143.2,16.1c0.6,0,1.2-0.2,1.7-0.5c0.5-0.4,0.9-0.9,1.1-1.5
		s0.4-1.3,0.4-2.1s-0.1-1.4-0.4-2.1s-0.6-1.1-1.1-1.5c-0.5-0.4-1-0.5-1.7-0.5c-0.6,0-1.2,0.2-1.7,0.5c-0.5,0.4-0.9,0.9-1.1,1.5
		s-0.4,1.3-0.4,2.1s0.1,1.4,0.4,2.1s0.6,1.1,1.1,1.5S142.6,16.1,143.2,16.1z"/>
	<path class="st3" d="M151,16.6l-2.8-9.2h0.8l2.4,8.1h0.1l2.4-8.1h0.8l2.4,8.1h0.1l2.4-8.1h0.8l-2.8,9.2h-0.8l-2.3-8h-0.1l-2.3,8
		H151z"/>
</g>
<g class="st6">
	<path class="st3" d="M166.1,16.8c-0.8,0-1.6-0.2-2.2-0.6c-0.6-0.4-1.1-1-1.4-1.7c-0.3-0.7-0.5-1.5-0.5-2.4c0-0.9,0.2-1.7,0.5-2.5
		c0.3-0.7,0.8-1.3,1.4-1.7c0.6-0.4,1.3-0.6,2-0.6c0.7,0,1.3,0.2,1.9,0.5c0.6,0.4,1,0.9,1.4,1.5s0.5,1.5,0.5,2.4v0.5h-7
		c0,0.8,0.2,1.4,0.4,2c0.3,0.6,0.7,1.1,1.2,1.4c0.5,0.3,1.1,0.5,1.8,0.5c0.5,0,0.9-0.1,1.3-0.3c0.4-0.2,0.7-0.4,0.9-0.6
		c0.2-0.2,0.4-0.5,0.5-0.7l0.7,0.3c-0.1,0.3-0.4,0.6-0.7,0.9c-0.3,0.3-0.7,0.6-1.1,0.8C167.2,16.7,166.7,16.8,166.1,16.8z
		 M162.7,11.5h6.3c0-0.7-0.1-1.3-0.4-1.8s-0.6-1-1.1-1.3c-0.5-0.3-1-0.5-1.6-0.5s-1.1,0.2-1.6,0.5c-0.5,0.3-0.8,0.7-1.1,1.3
		C162.9,10.3,162.8,10.9,162.7,11.5z"/>
</g>
<g class="st6">
	<path class="st3" d="M172.3,16.6V7.4h0.7v1.4h0.1c0.2-0.5,0.5-0.8,1-1.1c0.5-0.3,1-0.4,1.6-0.4c0.1,0,0.1,0,0.2,0
		c0.1,0,0.1,0,0.2,0V8c0,0-0.1,0-0.2,0s-0.1,0-0.2,0c-0.5,0-1,0.1-1.4,0.3s-0.7,0.5-0.9,0.9c-0.2,0.4-0.3,0.8-0.3,1.3v6.1H172.3z"/>
</g>
<g class="st6">
	<path class="st3" d="M181.3,16.8c-0.8,0-1.6-0.2-2.2-0.6c-0.6-0.4-1.1-1-1.4-1.7c-0.3-0.7-0.5-1.5-0.5-2.4c0-0.9,0.2-1.7,0.5-2.5
		c0.3-0.7,0.8-1.3,1.4-1.7c0.6-0.4,1.3-0.6,2-0.6c0.7,0,1.3,0.2,1.9,0.5c0.6,0.4,1,0.9,1.4,1.5c0.4,0.7,0.5,1.5,0.5,2.4v0.5h-7
		c0,0.8,0.2,1.4,0.4,2c0.3,0.6,0.7,1.1,1.2,1.4c0.5,0.3,1.1,0.5,1.8,0.5c0.5,0,0.9-0.1,1.3-0.3c0.4-0.2,0.7-0.4,0.9-0.6
		c0.2-0.2,0.4-0.5,0.5-0.7l0.7,0.3c-0.1,0.3-0.4,0.6-0.7,0.9s-0.7,0.6-1.1,0.8C182.4,16.7,181.9,16.8,181.3,16.8z M177.9,11.5h6.3
		c0-0.7-0.1-1.3-0.4-1.8s-0.6-1-1.1-1.3c-0.5-0.3-1-0.5-1.6-0.5c-0.6,0-1.1,0.2-1.6,0.5c-0.5,0.3-0.8,0.7-1.1,1.3
		S178,10.9,177.9,11.5z"/>
	<path class="st3" d="M190.6,16.8c-0.7,0-1.4-0.2-1.9-0.6c-0.6-0.4-1-1-1.3-1.7c-0.3-0.7-0.5-1.5-0.5-2.5s0.2-1.7,0.5-2.5
		s0.7-1.3,1.3-1.7c0.6-0.4,1.2-0.6,1.9-0.6c0.8,0,1.4,0.2,1.9,0.7s0.8,0.9,1.1,1.5h0.1V4.4h0.7v12.3h-0.7v-2h-0.1
		c-0.2,0.6-0.6,1.1-1.1,1.5C192.1,16.6,191.4,16.8,190.6,16.8z M190.7,16.1c0.6,0,1.2-0.2,1.6-0.5s0.8-0.8,1-1.5s0.4-1.3,0.4-2.1
		c0-0.8-0.1-1.5-0.4-2.1s-0.6-1.1-1-1.5c-0.4-0.4-1-0.5-1.6-0.5c-0.6,0-1.2,0.2-1.6,0.5s-0.8,0.8-1,1.5c-0.2,0.6-0.4,1.3-0.4,2.1
		s0.1,1.5,0.4,2.1c0.2,0.6,0.6,1.1,1,1.5S190.1,16.1,190.7,16.1z"/>
</g>
<g class="st6">
	<path class="st3" d="M202.7,16.6V4.4h0.7v5.1h0.1c0.2-0.6,0.6-1.1,1.1-1.5s1.1-0.7,1.9-0.7c0.7,0,1.4,0.2,1.9,0.6s1,1,1.3,1.7
		s0.5,1.5,0.5,2.5s-0.2,1.7-0.5,2.5c-0.3,0.7-0.7,1.3-1.3,1.7c-0.5,0.4-1.2,0.6-1.9,0.6c-0.8,0-1.4-0.2-1.9-0.7
		c-0.5-0.4-0.8-1-1.1-1.5h-0.1v2H202.7z M203.4,12c0,0.8,0.1,1.5,0.4,2.1c0.2,0.6,0.6,1.1,1,1.5s1,0.5,1.6,0.5
		c0.6,0,1.2-0.2,1.6-0.5s0.8-0.9,1-1.5c0.2-0.6,0.4-1.3,0.4-2.1s-0.1-1.5-0.4-2.1c-0.2-0.6-0.6-1.1-1-1.5S207,8,206.4,8
		c-0.6,0-1.2,0.2-1.6,0.5c-0.4,0.4-0.8,0.8-1,1.5C203.5,10.6,203.4,11.3,203.4,12z"/>
</g>
<g class="st6">
	<path class="st3" d="M212.9,20.1c-0.4,0-0.7-0.1-1-0.2l0.2-0.6c0.6,0.2,1.1,0.2,1.5,0c0.4-0.2,0.7-0.6,1-1.3l0.4-1.2l-3.4-9.3h0.8
		l2.9,8.3h0.1l2.9-8.3l0.8,0l-3.9,10.8C214.7,19.5,214,20.1,212.9,20.1z"/>
</g>
<g class="st6">
	<path class="st3" d="M111.9,28.2c-0.5-1.8-1.4-3.2-2.8-4.2c-1.4-1-3.2-1.5-5.3-1.5c-3.2,0-5.8,1.2-7.7,3.5
		c-1.9,2.3-2.8,5.6-2.8,9.8c0,4.3,0.9,7.6,2.8,9.9c1.8,2.4,4.4,3.5,7.7,3.5c2.9,0,5.1-0.7,6.7-2.1c1.6-1.4,2.4-3.2,2.4-5.6h-8.8
		v-7.8h19.1v5.9c0,4-0.8,7.4-2.5,10.2c-1.7,2.8-4,5-6.9,6.5c-2.9,1.5-6.3,2.3-10.1,2.3c-4.2,0-8-0.9-11.2-2.8
		C89.3,54,86.8,51.4,85,48s-2.7-7.4-2.7-12.1c0-4.8,0.9-9,2.8-12.4c1.9-3.4,4.4-6,7.7-7.8s6.8-2.7,10.7-2.7c3.4,0,6.5,0.6,9.3,1.9
		s5,3.1,6.8,5.3c1.7,2.3,2.8,4.9,3.2,7.8H111.9z"/>
</g>
<g class="st6">
	<path class="st3" d="M130,58V24.8h10.3v6.1h0.3c0.6-2.2,1.6-3.8,3-4.9c1.4-1.1,3-1.6,4.8-1.6c1,0,2,0.1,3,0.4v9.2
		c-0.5-0.2-1.2-0.3-2-0.4c-0.8-0.1-1.5-0.2-2.2-0.2c-1.9,0-3.5,0.6-4.7,1.8c-1.3,1.2-1.9,2.8-1.9,4.8V58H130z"/>
</g>
<g class="st6">
	<path class="st3" d="M164.2,58.6c-3.2,0-5.8-0.8-7.9-2.4c-2.1-1.6-3.1-4.1-3.1-7.4c0-2.5,0.6-4.4,1.7-5.9s2.6-2.5,4.5-3.2
		c1.9-0.7,3.9-1.1,6.2-1.3c2.8-0.2,4.9-0.5,6.1-0.9c1.2-0.4,1.8-1,1.8-2.1v-0.1c0-1.1-0.4-2-1.1-2.6c-0.8-0.6-1.8-0.9-3.1-0.9
		c-1.4,0-2.5,0.3-3.4,0.9s-1.4,1.4-1.6,2.5l-9.8-0.3c0.4-3,1.9-5.6,4.4-7.6c2.5-2,6-3,10.5-3c2.8,0,5.4,0.4,7.6,1.3s4,2.1,5.2,3.8
		c1.3,1.6,1.9,3.6,1.9,6V58h-10v-4.6h-0.3C172,56.9,168.8,58.6,164.2,58.6z M167.5,51.7c1.7,0,3.1-0.5,4.3-1.5
		c1.2-1,1.8-2.3,1.8-3.9V43c-0.6,0.3-1.4,0.6-2.5,0.8s-2.1,0.4-3.1,0.5c-3.1,0.5-4.7,1.8-4.7,3.9c0,1.1,0.4,1.9,1.2,2.5
		S166.3,51.7,167.5,51.7z"/>
</g>
<g class="st6">
	<path class="st3" d="M222,24.8L210.6,58h-12.1L187,24.8h11.2l6.1,22.9h0.3l6.2-22.9H222z"/>
	<path class="st3" d="M231.4,20.9c-1.5,0-2.8-0.5-3.8-1.5c-1.1-1-1.6-2.2-1.6-3.6c0-1.4,0.5-2.6,1.6-3.6s2.3-1.5,3.8-1.5
		c1.5,0,2.8,0.5,3.8,1.5c1.1,1,1.6,2.2,1.6,3.6c0,1.4-0.5,2.6-1.6,3.6C234.1,20.4,232.9,20.9,231.4,20.9z M226,58V24.8h10.6V58H226z
		"/>
	<path class="st3" d="M262.1,24.8v7.8h-6v15c0,1,0.2,1.7,0.7,2.1c0.5,0.4,1.1,0.6,2,0.6c0.4,0,0.8,0,1.3-0.1c0.5-0.1,0.8-0.1,1-0.2
		l1.6,7.7c-0.5,0.1-1.2,0.3-2.1,0.5c-0.9,0.2-2,0.4-3.3,0.4c-3.7,0.2-6.6-0.6-8.7-2.2c-2.1-1.7-3.1-4.2-3.1-7.5V32.6h-4.4v-7.8h4.4
		v-8h10.6v8H262.1z"/>
	<path class="st3" d="M274,70.5c-1.3,0-2.5-0.1-3.6-0.3s-2.1-0.5-2.9-0.8l2.3-7.7c1.6,0.5,2.9,0.7,4,0.5c1.1-0.2,1.9-0.8,2.5-2
		l0.4-1l-11.8-34.5H276l6.1,23.8h0.3l6.2-23.8l11.2,0l-12.5,36.5c-0.9,2.7-2.4,4.9-4.5,6.7C280.8,69.6,277.9,70.5,274,70.5z"/>
</g>
<g class="st6">
	<path class="st3" d="M141.8,69.4h-0.6l3.3-9h0.6l3.3,9h-0.6l-1-2.9h-3.9L141.8,69.4z M143,66h3.6l-1.8-4.9h0L143,66z"/>
	<path class="st3" d="M160.4,63.2h-0.6c-0.1-0.4-0.2-0.8-0.5-1.2s-0.6-0.7-1-0.9s-0.9-0.4-1.4-0.4c-0.6,0-1.1,0.2-1.6,0.5
		c-0.5,0.3-0.9,0.8-1.2,1.4c-0.3,0.6-0.4,1.4-0.4,2.2c0,0.9,0.1,1.6,0.4,2.3c0.3,0.6,0.7,1.1,1.2,1.4c0.5,0.3,1,0.5,1.6,0.5
		c0.5,0,1-0.1,1.4-0.3s0.7-0.5,1-0.9s0.4-0.8,0.5-1.2h0.6c-0.1,0.5-0.3,1-0.6,1.4s-0.7,0.8-1.2,1.1c-0.5,0.3-1.1,0.4-1.7,0.4
		c-0.7,0-1.4-0.2-2-0.6s-1-0.9-1.3-1.6c-0.3-0.7-0.5-1.5-0.5-2.4c0-0.9,0.2-1.7,0.5-2.4c0.3-0.7,0.8-1.2,1.3-1.6
		c0.6-0.4,1.2-0.6,2-0.6c0.7,0,1.3,0.1,1.7,0.4c0.5,0.3,0.9,0.7,1.2,1.1S160.3,62.7,160.4,63.2z"/>
	<path class="st3" d="M164.1,69.5c-0.4,0-0.7-0.1-1.1-0.2s-0.6-0.4-0.8-0.7s-0.3-0.7-0.3-1.1c0-0.6,0.2-1,0.6-1.3
		c0.4-0.3,1.1-0.5,2-0.6c0.3,0,0.7-0.1,0.9-0.1c0.3,0,0.5-0.1,0.6-0.2c0.2-0.1,0.2-0.2,0.2-0.4v-0.3c0-0.5-0.2-0.9-0.5-1.2
		c-0.3-0.3-0.7-0.4-1.3-0.4c-0.5,0-0.9,0.1-1.2,0.3s-0.6,0.5-0.7,0.8l-0.5-0.2c0.2-0.5,0.5-0.8,1-1.1c0.4-0.2,0.9-0.4,1.5-0.4
		c0.4,0,0.8,0.1,1.1,0.2c0.3,0.2,0.6,0.4,0.8,0.7c0.2,0.3,0.3,0.7,0.3,1.2v4.7h-0.5v-1.2h0c-0.2,0.4-0.4,0.7-0.8,1
		C165.1,69.4,164.6,69.5,164.1,69.5z M164.1,69c0.4,0,0.8-0.1,1.1-0.3s0.6-0.5,0.8-0.9c0.2-0.4,0.3-0.8,0.3-1.2v-1
		c-0.1,0.1-0.4,0.2-0.7,0.3c-0.3,0.1-0.7,0.1-1,0.2c-0.7,0.1-1.3,0.2-1.6,0.5s-0.5,0.6-0.5,1c0,0.5,0.2,0.8,0.5,1.1
		S163.7,69,164.1,69z"/>
	<path class="st3" d="M169.1,69.4v-6.8h0.5v1h0.1c0.1-0.3,0.4-0.6,0.7-0.8c0.3-0.2,0.7-0.3,1.1-0.3c0.5,0,0.9,0.1,1.2,0.4
		c0.3,0.2,0.5,0.6,0.6,1h0c0.1-0.4,0.4-0.7,0.7-1c0.3-0.2,0.8-0.4,1.3-0.4c0.7,0,1.2,0.2,1.5,0.6c0.3,0.4,0.5,1,0.5,1.7v4.5h-0.5
		v-4.5c0-0.6-0.1-1-0.4-1.3c-0.3-0.3-0.7-0.5-1.2-0.5c-0.6,0-1,0.2-1.3,0.5s-0.4,0.8-0.4,1.3v4.5H173v-4.6c0-0.5-0.1-1-0.4-1.3
		c-0.3-0.3-0.7-0.5-1.2-0.5c-0.5,0-1,0.2-1.3,0.5c-0.3,0.4-0.5,0.8-0.5,1.4v4.4H169.1z"/>
	<path class="st3" d="M179.6,71.9v-9.3h0.5v1.5h0.1c0.2-0.4,0.4-0.8,0.8-1.1s0.8-0.5,1.4-0.5c0.5,0,1,0.2,1.4,0.4
		c0.4,0.3,0.7,0.7,0.9,1.2c0.2,0.5,0.3,1.1,0.3,1.8s-0.1,1.3-0.3,1.8c-0.2,0.5-0.5,0.9-0.9,1.2s-0.9,0.5-1.4,0.5
		c-0.6,0-1-0.2-1.4-0.5c-0.4-0.3-0.6-0.7-0.8-1.1h-0.1v4H179.6z M180.1,66c0,0.6,0.1,1.1,0.3,1.5c0.2,0.5,0.4,0.8,0.8,1.1
		c0.3,0.3,0.7,0.4,1.2,0.4c0.5,0,0.9-0.1,1.2-0.4s0.6-0.6,0.8-1.1c0.2-0.5,0.3-1,0.3-1.5c0-0.6-0.1-1.1-0.3-1.5s-0.4-0.8-0.8-1.1
		s-0.7-0.4-1.2-0.4c-0.5,0-0.9,0.1-1.2,0.4c-0.3,0.3-0.6,0.6-0.8,1.1C180.2,64.9,180.1,65.4,180.1,66z"/>
	<path class="st3" d="M189.4,62.6v0.5H188v6.3h-0.5v-6.3h-1v-0.5h1v-1c0-0.3,0.1-0.6,0.2-0.9c0.2-0.2,0.4-0.4,0.6-0.6
		c0.3-0.1,0.5-0.2,0.8-0.2c0.2,0,0.3,0,0.4,0c0.1,0,0.2,0.1,0.3,0.1l-0.2,0.5c-0.1,0-0.1,0-0.2-0.1s-0.2,0-0.3,0
		c-0.3,0-0.6,0.1-0.8,0.3c-0.2,0.2-0.3,0.5-0.3,0.9v0.9H189.4z"/>
	<path class="st3" d="M191.4,61.4c-0.1,0-0.2,0-0.3-0.1c-0.1-0.1-0.1-0.2-0.1-0.3c0-0.1,0-0.2,0.1-0.3c0.1-0.1,0.2-0.1,0.3-0.1
		c0.1,0,0.2,0,0.3,0.1s0.1,0.2,0.1,0.3c0,0.1,0,0.2-0.1,0.3C191.6,61.4,191.5,61.4,191.4,61.4z M191.1,69.4v-6.8h0.5v6.8H191.1z"/>
</g>
<g class="st6">
	<path class="st3" d="M193.9,69.4v-6.8h0.5v1.1h0c0.1-0.3,0.4-0.6,0.7-0.8c0.3-0.2,0.7-0.3,1.2-0.3c0,0,0.1,0,0.1,0c0,0,0.1,0,0.1,0
		V63c0,0-0.1,0-0.1,0c0,0-0.1,0-0.2,0c-0.4,0-0.7,0.1-1,0.2c-0.3,0.2-0.5,0.4-0.7,0.7c-0.2,0.3-0.3,0.6-0.3,1v4.5H193.9z"/>
</g>
<g class="st6">
	<path class="st3" d="M200.6,69.5c-0.6,0-1.1-0.2-1.6-0.5s-0.8-0.7-1-1.2c-0.2-0.5-0.4-1.1-0.4-1.8c0-0.7,0.1-1.3,0.4-1.8
		s0.6-0.9,1-1.3c0.4-0.3,0.9-0.5,1.5-0.5c0.5,0,1,0.1,1.4,0.4c0.4,0.3,0.8,0.6,1,1.1c0.3,0.5,0.4,1.1,0.4,1.7v0.3h-5.2
		c0,0.6,0.1,1.1,0.3,1.5s0.5,0.8,0.9,1c0.4,0.3,0.8,0.4,1.3,0.4c0.4,0,0.7-0.1,0.9-0.2s0.5-0.3,0.6-0.5c0.2-0.2,0.3-0.4,0.4-0.5
		l0.5,0.2c-0.1,0.2-0.3,0.5-0.5,0.7c-0.2,0.2-0.5,0.4-0.8,0.6C201.4,69.4,201,69.5,200.6,69.5z M198.1,65.6h4.6
		c0-0.5-0.1-0.9-0.3-1.3c-0.2-0.4-0.5-0.7-0.8-0.9c-0.3-0.2-0.7-0.3-1.2-0.3s-0.8,0.1-1.2,0.3s-0.6,0.5-0.8,0.9
		C198.3,64.7,198.2,65.1,198.1,65.6z"/>
	<path class="st3" d="M215.7,63.2h-0.6c-0.1-0.4-0.2-0.8-0.5-1.2s-0.6-0.7-1-0.9c-0.4-0.2-0.9-0.4-1.4-0.4c-0.6,0-1.1,0.2-1.6,0.5
		c-0.5,0.3-0.9,0.8-1.2,1.4s-0.4,1.4-0.4,2.2c0,0.9,0.1,1.6,0.4,2.3s0.7,1.1,1.2,1.4s1,0.5,1.6,0.5c0.5,0,1-0.1,1.4-0.3
		c0.4-0.2,0.7-0.5,1-0.9s0.4-0.8,0.5-1.2h0.6c-0.1,0.5-0.3,1-0.6,1.4s-0.7,0.8-1.2,1.1c-0.5,0.3-1.1,0.4-1.7,0.4
		c-0.7,0-1.4-0.2-2-0.6c-0.6-0.4-1-0.9-1.3-1.6c-0.3-0.7-0.5-1.5-0.5-2.4c0-0.9,0.2-1.7,0.5-2.4c0.3-0.7,0.8-1.2,1.3-1.6
		c0.6-0.4,1.2-0.6,2-0.6c0.7,0,1.3,0.1,1.7,0.4c0.5,0.3,0.9,0.7,1.2,1.1S215.6,62.7,215.7,63.2z"/>
	<path class="st3" d="M220.1,69.5c-0.6,0-1.1-0.2-1.5-0.5s-0.8-0.7-1-1.2c-0.2-0.5-0.4-1.1-0.4-1.8c0-0.7,0.1-1.3,0.4-1.8
		c0.3-0.5,0.6-0.9,1-1.2c0.4-0.3,0.9-0.5,1.5-0.5s1.1,0.2,1.5,0.5c0.4,0.3,0.8,0.7,1,1.2c0.3,0.5,0.4,1.1,0.4,1.8
		c0,0.7-0.1,1.3-0.4,1.8c-0.2,0.5-0.6,0.9-1,1.2S220.7,69.5,220.1,69.5z M220.1,69c0.5,0,0.9-0.1,1.2-0.4c0.4-0.3,0.6-0.6,0.8-1.1
		s0.3-1,0.3-1.5c0-0.6-0.1-1.1-0.3-1.5c-0.2-0.5-0.5-0.8-0.8-1.1s-0.8-0.4-1.2-0.4c-0.5,0-0.9,0.1-1.2,0.4s-0.6,0.6-0.8,1.1
		c-0.2,0.5-0.3,1-0.3,1.5c0,0.6,0.1,1.1,0.3,1.5s0.5,0.8,0.8,1.1C219.2,68.9,219.6,69,220.1,69z"/>
	<path class="st3" d="M224.9,69.4v-6.8h0.5v1h0.1c0.1-0.3,0.4-0.6,0.7-0.8c0.3-0.2,0.7-0.3,1.1-0.3c0.5,0,0.9,0.1,1.2,0.4
		c0.3,0.2,0.5,0.6,0.6,1h0c0.1-0.4,0.4-0.7,0.7-1c0.3-0.2,0.8-0.4,1.3-0.4c0.7,0,1.2,0.2,1.5,0.6c0.3,0.4,0.5,1,0.5,1.7v4.5h-0.5
		v-4.5c0-0.6-0.1-1-0.4-1.3c-0.3-0.3-0.7-0.5-1.2-0.5c-0.6,0-1,0.2-1.3,0.5s-0.4,0.8-0.4,1.3v4.5h-0.5v-4.6c0-0.5-0.1-1-0.4-1.3
		c-0.3-0.3-0.7-0.5-1.2-0.5c-0.5,0-1,0.2-1.3,0.5c-0.3,0.4-0.5,0.8-0.5,1.4v4.4H224.9z"/>
	<path class="st3" d="M235.3,71.9v-9.3h0.5v1.5h0.1c0.2-0.4,0.4-0.8,0.8-1.1s0.8-0.5,1.4-0.5c0.5,0,1,0.2,1.4,0.4
		c0.4,0.3,0.7,0.7,0.9,1.2c0.2,0.5,0.3,1.1,0.3,1.8s-0.1,1.3-0.3,1.8c-0.2,0.5-0.5,0.9-0.9,1.2s-0.9,0.5-1.4,0.5
		c-0.6,0-1-0.2-1.4-0.5c-0.4-0.3-0.6-0.7-0.8-1.1h-0.1v4H235.3z M235.9,66c0,0.6,0.1,1.1,0.3,1.5c0.2,0.5,0.4,0.8,0.8,1.1
		c0.3,0.3,0.7,0.4,1.2,0.4c0.5,0,0.9-0.1,1.2-0.4s0.6-0.6,0.8-1.1c0.2-0.5,0.3-1,0.3-1.5c0-0.6-0.1-1.1-0.3-1.5s-0.4-0.8-0.8-1.1
		s-0.7-0.4-1.2-0.4c-0.5,0-0.9,0.1-1.2,0.4c-0.3,0.3-0.6,0.6-0.8,1.1C235.9,64.9,235.9,65.4,235.9,66z"/>
	<path class="st3" d="M244.4,69.5c-0.4,0-0.7-0.1-1.1-0.2c-0.3-0.2-0.6-0.4-0.8-0.7s-0.3-0.7-0.3-1.1c0-0.6,0.2-1,0.6-1.3
		c0.4-0.3,1.1-0.5,2-0.6c0.3,0,0.6-0.1,0.9-0.1c0.3,0,0.5-0.1,0.6-0.2c0.2-0.1,0.2-0.2,0.2-0.4v-0.3c0-0.5-0.2-0.9-0.5-1.2
		c-0.3-0.3-0.7-0.4-1.3-0.4c-0.5,0-0.9,0.1-1.2,0.3c-0.3,0.2-0.6,0.5-0.7,0.8l-0.5-0.2c0.2-0.5,0.5-0.8,1-1.1
		c0.4-0.2,0.9-0.4,1.5-0.4c0.4,0,0.8,0.1,1.1,0.2c0.3,0.2,0.6,0.4,0.8,0.7c0.2,0.3,0.3,0.7,0.3,1.2v4.7h-0.5v-1.2h0
		c-0.2,0.4-0.5,0.7-0.8,1C245.4,69.4,245,69.5,244.4,69.5z M244.5,69c0.4,0,0.8-0.1,1.1-0.3c0.3-0.2,0.6-0.5,0.8-0.9
		c0.2-0.4,0.3-0.8,0.3-1.2v-1c-0.1,0.1-0.4,0.2-0.7,0.3c-0.3,0.1-0.7,0.1-1,0.2c-0.7,0.1-1.3,0.2-1.6,0.5c-0.3,0.2-0.5,0.6-0.5,1
		c0,0.5,0.2,0.8,0.5,1.1C243.6,68.9,244,69,244.5,69z"/>
</g>
<g class="st6">
	<path class="st3" d="M250,65v4.4h-0.5v-6.8h0.5v1.1h0.1c0.2-0.3,0.4-0.6,0.8-0.8c0.3-0.2,0.8-0.3,1.2-0.3c0.7,0,1.2,0.2,1.7,0.6
		s0.6,1,0.6,1.8v4.5h-0.5v-4.4c0-0.6-0.2-1-0.5-1.4c-0.3-0.3-0.8-0.5-1.4-0.5c-0.6,0-1,0.2-1.4,0.5S250,64.4,250,65z"/>
</g>
<g class="st6">
	<path class="st3" d="M256.8,71.9c-0.3,0-0.5-0.1-0.8-0.2l0.2-0.5c0.4,0.2,0.8,0.2,1.1,0s0.5-0.5,0.7-1l0.3-0.8l-2.5-6.9h0.6
		l2.1,6.1h0l2.1-6.1l0.6,0l-2.9,7.9C258.1,71.4,257.5,71.9,256.8,71.9z"/>
</g>
</svg>
