<?xml version="1.0" encoding="utf-8"?>
<!-- Generator: Adobe Illustrator 23.0.1, SVG Export Plug-In . SVG Version: 6.00 Build 0)  -->
<svg version="1.1" id="Layer_1" xmlns="http://www.w3.org/2000/svg" xmlns:xlink="http://www.w3.org/1999/xlink" x="0px" y="0px"
	 viewBox="0 0 900 600" style="enable-background:new 0 0 900 600;" xml:space="preserve">
<style type="text/css">
	.st0{fill:#291D37;}
	.st1{fill:#F2F2F2;}
	.st2{opacity:0.1;fill:#020203;enable-background:new    ;}
	.st3{fill:#403E56;}
	.st4{fill:#463460;}
	.st5{fill:#EC6585;}
	.st6{fill:#302F42;}
	.st7{fill:#5C4897;}
	.st8{fill:#A8A8A8;}
	.st9{opacity:0.2;fill:#020203;enable-background:new    ;}
	.st10{fill:#F7BEC5;}
	.st11{fill:#F1F1F1;}
	.st12{fill:#50537B;}
	.st13{fill:#585B8A;}
	.st14{fill:#422876;}
	.st15{fill:#444651;}
	.st16{fill:#545562;}
	.st17{fill:none;stroke:#555562;stroke-width:3;stroke-miterlimit:10;}
	.st18{fill:#5D4998;}
	.st19{opacity:0.3;fill:#020203;enable-background:new    ;}
	.st20{fill:url(#SVGID_1_);}
	.st21{fill:#F7C4A7;}
	.st22{fill:#555562;}
	.st23{fill:#585A88;}
	.st24{fill:#642652;}
	.st25{opacity:0.5;fill:#FFFFFF;enable-background:new    ;}
	.st26{opacity:0.5;fill:#DEE3F3;enable-background:new    ;}
</style>
<path class="st0" d="M791.8,398.7c-4.2,36.3-13,65.4-25.1,88.7c-16.1,31-43.6,43.4-68.1,56.5c-7.1,3.8-14.5,7-22.1,9.6
	c-44.7,15.5-94.7,11.4-134,3.2c-27.6-5.7-55.5-9.3-83.7-10.6c-8-0.4-16.1-0.5-24.1-0.5c-12.4,0-235.6,4.3-289.9-105.7
	c-13.4-27.1-22.6-60.3-25.9-100.7c-9.3-114.2,42-189.2,108.3-238.3C352.5,8,524.4,11.9,647.9,107.1
	C730.1,170.5,807.2,266.5,791.8,398.7z"/>
<path class="st1" d="M766.4,487.3c-16.1,31-37.9,51.5-62.5,64.5c-7.1,3.8-14.5,7-22.1,9.6c-44.7,15.5-94.7,11.4-134,3.2
	c-27.6-5.7-55.5-9.3-83.7-10.6c-8-0.4-16.1-0.5-24.1-0.5c-12.4,0-24.8,0.5-37.2,1.4c-80.5,5.9-204-5.2-258.3-115.2l135.9-263.3
	l50.6,129.9l16.1,41.5l44.5-61.1l23-31.5l104.6,120l29.6-65.3L753.7,477l11.4,9.3L766.4,487.3z"/>
<polygon class="st2" points="259.3,260.8 280.2,215 309.2,281.7 284.2,233.5 "/>
<path class="st2" d="M462.3,554.1c-8-0.4-16.1-0.5-24.1-0.5l-92.8-205.7L462.3,554.1z"/>
<polygon class="st2" points="389.9,286.7 412.8,268.9 517.3,389.4 411.2,286.6 "/>
<path class="st2" d="M702,551.9c-7.1,3.8-14.5,7-22.1,9.6L517.5,375.2L702,551.9z"/>
<circle class="st1" cx="404" cy="115.4" r="2.4"/>
<circle class="st1" cx="337.3" cy="198.1" r="2.4"/>
<circle class="st1" cx="500.4" cy="212.6" r="1.6"/>
<circle class="st1" cx="162.9" cy="248.8" r="1.6"/>
<circle class="st1" cx="510.1" cy="113" r="1.6"/>
<circle class="st1" cx="609.7" cy="190.1" r="1.6"/>
<circle class="st1" cx="707.8" cy="312.3" r="1.6"/>
<polygon class="st1" points="262.5,130.8 260.3,130.8 260.3,128.6 259.1,128.6 259.1,130.8 256.9,130.8 256.9,132 259.1,132 
	259.1,134.3 260.3,134.3 260.3,132 262.5,132 "/>
<polygon class="st1" points="698.2,374.4 695.9,374.4 695.9,372.2 694.8,372.2 694.8,374.4 692.5,374.4 692.5,375.6 694.8,375.6 
	694.8,377.8 695.9,377.8 695.9,375.6 698.2,375.6 "/>
<path class="st3" d="M891.1,526.9c0,13.3-195.8,59.5-437.2,59.5S16.6,540.2,16.6,526.9s195.8,11.3,437.2,11.3
	S891.1,513.6,891.1,526.9z"/>
<path class="st0" d="M891.1,526.9c0,13.3-195.8,59.5-437.2,59.5S16.6,540.2,16.6,526.9s195.8,11.3,437.2,11.3
	S891.1,513.6,891.1,526.9z"/>
<ellipse class="st4" cx="453.8" cy="526.9" rx="437.2" ry="24.1"/>
<path class="st5" d="M504.3,488.9c0,26.6-11.9,19.3-26.5,19.3c-14.6,0-26.5,7.3-26.5-19.3c0-26.6,26.5-77.2,26.5-77.2
	S504.3,462.3,504.3,488.9z"/>
<path class="st2" d="M489.9,499.1c0,12.1-5.4,8.8-12.1,8.8s-12.1,3.3-12.1-8.8c0-12.1,12.1-35.1,12.1-35.1S489.9,487,489.9,499.1z"
	/>
<path class="st6" d="M448.1,515.4h59.5c4,0,7.2,3.2,7.2,7.2s-3.2,7.2-7.2,7.2h-59.5c-4,0-7.2-3.2-7.2-7.2S444.1,515.4,448.1,515.4z"
	/>
<path class="st6" d="M448.1,500.9h59.5c4,0,7.2,3.2,7.2,7.2l0,0c0,4-3.2,7.2-7.2,7.2h-59.5c-4,0-7.2-3.2-7.2-7.2l0,0
	C440.9,504.2,444.1,500.9,448.1,500.9z"/>
<path class="st0" d="M126.7,427.7c0,44.5,27.9,80.5,62.4,80.5"/>
<path class="st7" d="M189.1,508.1c0-45,31.1-81.4,69.6-81.4"/>
<path class="st7" d="M149.3,431.7c0,42.3,17.8,76.4,39.8,76.4"/>
<path class="st0" d="M189.1,508.1c0-57.5,36-104,80.5-104"/>
<path class="st8" d="M176,508.7c0,0,8.8-0.3,11.5-2.2c2.7-1.9,13.6-4.2,14.3-1.1c0.7,3,13.3,15.1,3.3,15.2
	c-10,0.1-23.2-1.6-25.9-3.2C176.5,515.8,176,508.7,176,508.7z"/>
<path class="st9" d="M205.2,519.6c-10,0.1-23.2-1.6-25.9-3.2c-2-1.2-2.8-5.7-3.1-7.7c-0.2,0-0.3,0-0.3,0s0.6,7.1,3.2,8.8
	s15.9,3.3,25.9,3.2c2.9,0,3.9-1,3.8-2.6C208.5,519,207.4,519.6,205.2,519.6z"/>
<path class="st0" d="M596.4,457c0,30.6,19.2,55.3,42.9,55.3"/>
<path class="st7" d="M639.3,512.3c0-30.9,21.4-55.9,47.8-55.9"/>
<path class="st7" d="M612,459.8c0,29,12.2,52.5,27.3,52.5"/>
<path class="st0" d="M639.3,512.3c0-39.5,24.7-71.5,55.3-71.5"/>
<path class="st8" d="M630.3,512.7c0,0,6.1-0.2,7.9-1.5c1.8-1.3,9.4-2.9,9.8-0.8c0.5,2.1,9.1,10.4,2.3,10.5
	c-6.9,0.1-15.9-1.1-17.8-2.2C630.7,517.6,630.3,512.7,630.3,512.7z"/>
<path class="st9" d="M650.4,520.2c-6.9,0.1-15.9-1.1-17.8-2.2c-1.4-0.8-1.9-3.9-2.1-5.3c-0.1,0-0.2,0-0.2,0s0.4,4.9,2.2,6
	c1.8,1.1,10.9,2.2,17.8,2.2c2,0,2.7-0.7,2.6-1.8C652.6,519.8,651.9,520.2,650.4,520.2z"/>
<path class="st8" d="M735,530.7c0,0,9.1-1.4,11.7-3.7c2.5-2.3,13.6-6,14.6-2.9c1.1,3.1,15.7,14,5.3,15.4s-24.2,1.3-27.2-0.1
	S735,530.7,735,530.7z"/>
<path class="st9" d="M766.7,538.3c-10.3,1.3-24.2,1.3-27.2-0.1c-2.3-1-3.6-5.5-4.2-7.6c-0.2,0-0.3,0-0.3,0s1.5,7.3,4.4,8.7
	c3,1.3,16.9,1.4,27.2,0.1c3-0.4,3.9-1.6,3.6-3.1C770,537.3,768.9,538,766.7,538.3z"/>
<path class="st8" d="M510.3,530c0,0,7.7-1.2,9.8-3.1c2.1-1.9,11.5-5.1,12.4-2.5c0.9,2.6,13.2,11.8,4.5,13s-20.5,1.1-23,0
	C511.5,536.2,510.3,530,510.3,530z"/>
<path class="st9" d="M537,536.4c-8.7,1.1-20.5,1.1-23,0c-1.9-0.9-3.1-4.7-3.5-6.4c-0.2,0-0.3,0-0.3,0s1.2,6.2,3.7,7.3s14.2,1.2,23,0
	c2.5-0.3,3.3-1.3,3.1-2.6C539.8,535.6,538.9,536.2,537,536.4z"/>
<path class="st8" d="M115,526.2c0,0,6-0.9,7.7-2.4c1.7-1.5,8.9-4,9.6-1.9c0.7,2,10.3,9.2,3.5,10.1s-15.9,0.8-17.9,0
	C115.9,531,115,526.2,115,526.2z"/>
<path class="st9" d="M135.8,531.2c-6.8,0.9-15.9,0.8-17.9,0c-1.5-0.7-2.4-3.6-2.7-5c-0.1,0-0.2,0-0.2,0s1,4.8,2.9,5.7
	c1.9,0.9,11.1,0.9,17.9,0c2-0.3,2.6-1,2.4-2.1C137.9,530.5,137.2,531,135.8,531.2z"/>
<path class="st2" d="M325,516.7c0,24.3-33.9,16.8-75.3,16.8s-74.8,7.5-74.8-16.8c0-24.3,33.9-29.6,75.3-29.6S325,492.4,325,516.7z"
	/>
<path class="st4" d="M325,510.7c0,24.3-33.9,16.8-75.3,16.8s-74.8,7.5-74.8-16.8c0-24.3,33.9-29.6,75.3-29.6S325,486.4,325,510.7z"
	/>
<path class="st10" d="M325.9,398.3c-1.9,1.2-3.6,2.7-5.2,4.2c-1.6,1.6-2.8,3.6-3.3,5.8c-1.3-2.2-2.4-4.5-3.3-6.9
	c-1.9-4.2-4.1-8.4-6.5-12.3c3-1.6,5.5-3.9,7.1-6.9c4.3,3.4,8.7,6.9,11.2,11.7c0.4,0.8,1.5,1.7,1.8,2.4
	C328.2,397.4,326.7,397.8,325.9,398.3z"/>
<path class="st11" d="M392.4,492.5c4.2,1.3,8.1,3.4,11.6,6.2c0.3,0.2,0.4,0.4,0.5,0.7c0.1,0.7-0.8,0.9-1.5,1.1
	c-1.9,0.5-3.1,2.3-4.5,3.7c-1.4,1.4-3.7,2.5-5.3,1.4c-0.4-0.3-0.8-0.7-1.1-1.2l-6.9-9c2.3-1.3,4.8-2.4,7.3-3.2"/>
<path class="st12" d="M404.5,499.2c0.9,0.9,1.3,2.3,2.2,3.2c0.6,0.6,1.3,1.1,2,1.4l5.3,2.9c0.8,0.5,1.7,0.9,2.6,1.2
	c1,0.3,2,0.5,3,0.6c1.5,0.3,2.9,0.7,4.3,1.3c1,0.4,2.2,1.2,2.2,2.3c0,0.5-0.3,1.1-0.6,1.5c-2.1,2.6-5.8,3.2-9.1,3.6
	c-7.2,0.8-14.6,1.3-21.6-0.4c-1.4-0.3-2.7-0.8-3.8-1.6c-2.1-1.8-2.6-5-1.8-7.6c0.2-1,0.8-1.9,1.7-2.5c1.1-0.6,2.5-0.3,3.8-0.4
	c1.4-0.2,2.7-0.6,3.9-1.2c0.8-0.4,1.7-0.8,1.9-1.8c0.2-0.9-0.9-1.8-0.7-2.6C400.3,497.2,403.7,498.3,404.5,499.2z"/>
<path class="st11" d="M410.7,521.7c0.7,0.5,1.5,1,2.2,1.5c0.7,0.4,1.2,0.9,1.6,1.6c0.5,1.1-0.2,2.4-0.9,3.4c-2.2,3-5.1,5.3-8.6,6.6
	c-1.2,0.5-2.4,0.8-3.7,0.9c-0.3,0-0.6,0-0.9-0.1c-0.7-0.4-0.6-1.3-0.6-2.1c0-2.2-1.7-4-3.2-5.7c-1.5-1.6-3-3.6-2.7-5.8
	c0.3-1.3,1-2.5,1.9-3.4c0.8-1,1.8-2,2.9-2.7c1.6-1,2.1-0.5,3.6,0.5C405.2,518.1,407.9,519.9,410.7,521.7z"/>
<path class="st13" d="M403.5,532.5c1.2,0.3,2.5,0,3.5-0.8c1-0.8,1.7-1.8,2.3-2.9c0.5-1,1-2,1.4-3.1c0.5-1.2,0.9-2.6,2-3.4
	c1.3-0.9,3.2-0.6,4.5,0.3c1.3,1,2.4,2.1,3.5,3.3c2.8,2.6,6.2,4.5,9.9,5.5c3.7,1,7.4,1.8,11.2,2.4c0.8,0.1,1.5,0.3,2.1,0.7
	c1.5,0.9,2,3,1.6,4.7c-0.5,1.7-1.5,3.2-2.8,4.5c-1,1.2-2.3,2.2-3.7,2.9c-1.2,0.4-2.5,0.7-3.7,0.7c-6.2,0.4-12.4-0.1-18.5-1.4
	c-2.2-0.6-4.5-1.1-6.8-1.4c-1.4-0.1-2.8-0.1-4.2-0.2c-2.8-0.2-5.5-0.9-8-2.1c-0.6-0.2-1.1-0.7-1.5-1.2c-0.2-0.5-0.2-1.1-0.1-1.6
	l0.9-8.1c0.1-0.7,0.3-1.6,1-1.7c0.7-0.1,1.2,0.6,1.6,1.1c1.7,2,4.5,2.6,6.9,1.5"/>
<path class="st12" d="M359.2,433.7c4.1-0.5,8.8-0.5,11.5,2.5c1.7,1.9,2.2,4.5,2.8,6.9c0.9,4.1,2.4,8,4.4,11.7
	c1.3,2.3,2.9,4.4,3.9,6.9c1,2.5,1.4,5.2,2,7.8c2.4,10.4,8.2,19.6,16.5,26.3c-1.5,4-5.7,6.3-9.8,7.3c-1.8,0.8-3.9,0.2-5.1-1.4
	c-1.9-2.1-3.7-4.3-5.4-6.6c-5.9-7.9-12-16.1-15.2-25.4c-1.1-3.3-2.3-7.1-5.5-8.5c-1.8-0.8-3.9-0.5-5.9-0.2
	c-4.4,0.7-8.7,1.8-12.9,3.3c-3,1-5.5,1.1-13.7,1.1c-28.6,0-47,0-47.5-3.6c-0.2-1.1,1.4-3,9.8-6.2c0.1-4.5,1.5-7.2,2.6-8.7
	c7.8-10.6,29.9-5.3,45.7-9.1c6.7-1.6,8.7-2,12.9-2.7C353.3,434.4,356.2,434,359.2,433.7z"/>
<path class="st13" d="M325.6,463.6c6,1.9,12.4,2.1,18.7,2.7c10.6,1,21,3.1,31.2,6.2c2.1,0.5,4.1,1.4,5.9,2.7
	c1.4,1.3,2.5,2.7,3.4,4.3c1.7,2.5,3.1,5.1,4.5,7.8c1.1,2.4,2,5,3.1,7.5c3.6,8.3,9.2,15.5,16.4,21c1.3,1,2.8,2.1,3.1,3.7
	c0.2,1,0,2.1-0.5,3c-1.6,3.6-4.8,6.2-8.1,8.2c-1.5,0.9-3,1.7-3.8,3.3c-5.1-2.1-8.9-6.6-12.1-11.2s-6-9.4-10.1-13.2
	c-1.8-1.7-3.8-3.1-5.2-5.1c-2.2-3-2.7-7.2-5.6-9.6c-2.9-2.4-7.1-2-10.8-1.7c-3.9,0.4-21.8,0.2-57.6-0.6c-23.2-0.5-33.4-3.4-33.5-6
	c-0.1-2,5.9-3.3,8.1-9.5c0.9-2.5,1.2-4.2,1.4-4.9C275,468.1,285.1,463.9,325.6,463.6z"/>
<path class="st14" d="M245.5,477.4c0.1-3.2,1-6.3,1.4-9.5c0.2-2,0.4-3.9,0.8-5.9c0-0.1,0-0.1,0-0.2c0.4-0.1,0.7-0.3,0.9-0.7
	c0.1-0.3,0.1-0.6,0-0.9c-0.1-0.3-0.1-0.6-0.1-0.9c1-2.2,2.1-4.4,3.4-6.5c2.2-4,3.9-8.1,5.7-12.3c1.5-3.4,2.9-6.8,4.1-10.3
	c0.8-2.6,1.5-5.3,2.5-7.9c3.5-9.3,10.8-16.6,18.9-22.2c7.8-5.4,16.4-9.4,24.7-14c0.2,0.2,0.5,0.4,0.7,0.6c5.5,5.9,7,14.3,9.8,21.8
	c1.1,3,2.6,6,2.9,9.3c0.5,4.8-1.2,9.5-3,13.9c-1.6,4.2-3.5,8.3-5.8,12.2c-1.1,1.8-2.4,3.5-3.6,5.3c-4.7,7.4-6.9,16.1-9.1,24.6
	c-1.2,4.9-3.7,9.4-5.1,14.3c-0.5,1.9-0.8,3.8-1.5,5.6s-2.2,3.5-4.2,3.7c-0.6,0.1-1.1,0-1.7-0.1c-7.2-1-13.6-5-20-8.6
	c-1.1-0.6-2.3-1.3-3.4-1.9c-1.2-0.6-2.4-1.1-3.6-1.6c-0.9-0.4-1.8-0.7-2.8-1.1c-3-1.2-6-2.5-9.2-3.4c-0.9-0.3-1.8-0.6-2.7-1
	C245.5,479,245.4,478.2,245.5,477.4z"/>
<circle class="st10" cx="327.7" cy="381.2" r="16.3"/>
<path class="st6" d="M337.6,372.4c1,1.3,2.6,1.9,4.2,1.4c1.5-0.5,2.8-1.6,3.4-3.1c0.6-1.5,0.9-3,0.9-4.6c0.1-1.2-0.3-2.5-1.1-3.4
	c-0.7-0.5-1.4-0.9-2.2-1.2c-1.1-0.5-2.1-1.3-2.9-2.3c-0.5-0.7-1-1.5-1.5-2.2c-1.8-2.6-4.9-4.6-8.1-4.1c-1.5,0.2-2.9,1-4.3,1.4
	c-4.9,1.5-10.7-0.6-15.1,2c-1.1,0.7-2.1,1.5-2.9,2.5c-1.2,1.2-2.3,2.5-3.4,3.8c-0.9,1-1.6,2.3-1.9,3.6c-0.4,2.4,1.5,4.9,0.8,7.3
	c-0.3,0.7-0.6,1.3-1,2c-0.9,1.7,1,7.6,1.1,9.5c0,0.9,0.3,1.8,0.9,2.5c0.9,0.8,2.2,0.7,3.3,0.6l2.1-0.2c0.3,0,0.6-0.1,0.9-0.2
	c0.4-0.2,0.7-0.6,1-0.9c1.5-2,1.2-8.1,3.7-8.4c0.4-0.1,0.8,0,1.1,0.2c0.5,0.3,0.7,0.9,1.1,1.3c0.9,0.8,2.2,1,3.2,0.4
	c1-0.6,1.8-1.4,2.4-2.4c0.6-1,1.3-1.9,2.2-2.7c1.3-0.9,2.7-1.5,4-2.5c1-0.9,1.5-2,2.4-3c0.7-0.8,1.9-1,2.9-0.5
	C336.6,369.7,336.8,371,337.6,372.4z"/>
<path class="st15" d="M379,437.8c-9.5-0.5-19-1.1-28.5-1.6c-3.9,10.7-7.8,21.4-11.6,32c11.6,1.4,23.2,2.8,34.8,4.2
	C375.5,461,377.2,449.4,379,437.8z"/>
<rect x="374.5" y="418.7" transform="matrix(0.973 0.2307 -0.2307 0.973 112.9999 -75.049)" class="st16" width="6" height="54"/>
<g>
	<path class="st10" d="M352.6,453c2.1,0.5,4,1.3,5.9,2.3c2,1.4,3.6,3.2,4.9,5.3c0.5,0.7,0.9,1.4,1.2,2.2c0.3,0.8,0.1,1.7-0.3,2.4
		c-0.6,0.6-1.4,1.1-2.3,1.2c-1.1,0.3-2.3,0.5-3.5,0.7c-0.7,0.2-1.4,0.2-2.1,0.1c-0.7-0.2-1.3-0.4-1.9-0.8c-2.5-1.4-4.7-3.2-6.5-5.4
		c-1.3-1.6-3.7-5.5-2.8-7.7C345.9,451.1,350.9,452.6,352.6,453z"/>
	<path class="st2" d="M293.8,407.6c3.6-1.4,7.4-2,11.2-1.8c1.3,0,2.5,0.4,3.5,1.1c0.6,0.6,1.1,1.3,1.4,2.1c1.6,3.6,2.1,7.6,1.4,11.5
		c-0.1,0.4-0.1,0.9,0.1,1.2c0.2,0.2,0.5,0.4,0.8,0.5c1.1,0.6,1.4,2,0.8,3.1c0,0.1-0.1,0.2-0.1,0.2c-0.2,0.3-0.6,0.6-0.6,0.9
		c0,0.4,0.5,0.6,0.8,0.8c1.1,0.6,1.7,1.8,1.8,3c0,0.5,0,1,0,1.5c0.2,0.6,0.5,1.1,0.9,1.6c0.8,1.1,1.2,2.3,1.4,3.6
		c0,0.6,0.1,1.3,0.4,1.8c0.3,0.4,0.6,0.7,1,0.9c1.5,1.3,2.4,3.8,1,5.1c1.6,0.4,2.8,1.8,3,3.4c0.9-0.8,2.2-0.4,3.2,0.2
		c1,0.6,2.1,1.3,3.2,1.1c0.8-0.2,1.5-0.8,2.3-0.6c1.2,0.2,1.6,2,2.8,2.2c1,0.2,2.2-0.8,3.1-0.4c0.3,0.2,0.6,0.5,0.9,0.7
		c0.7,0.4,1.6-0.1,2.4-0.3c2-0.4,4,0.2,5.4,1.7c1.3,1.5,2.3,3.2,3,5.1c0.5,1,0.7,2.1,0.7,3.2c0,1.1-0.7,2.1-1.7,2.6
		c-9.5,3-19.7,3-29.7,3c-2.9,0-6-0.1-8.7-1.2c-2.5-1-4.5-2.8-6.6-4.5c-3.7-3.2-7.5-6.5-10.5-10.3c-3.9-5-6.6-10.8-9.1-16.6
		c-0.8-1.5-1.3-3.2-1.6-4.9c-0.1-2,0.2-4.1,0.9-6c0.8-2.5,1.8-4.9,2.9-7.3C287.1,412.2,290.1,409.2,293.8,407.6z"/>
	<path class="st14" d="M294.3,406.8c3.6-1.4,7.4-2,11.2-1.8c1.3,0,2.5,0.4,3.5,1.1c0.6,0.6,1.1,1.3,1.4,2.1
		c1.6,3.6,2.1,7.6,1.4,11.5c-0.1,0.4-0.1,0.9,0.1,1.2c0.2,0.2,0.5,0.4,0.8,0.5c1.1,0.6,1.4,2,0.8,3.1c0,0.1-0.1,0.2-0.1,0.2
		c-0.2,0.3-0.6,0.6-0.6,0.9c0,0.4,0.5,0.6,0.8,0.8c1.1,0.6,1.7,1.8,1.8,3c0,0.5,0,1,0,1.5c0.2,0.6,0.5,1.1,0.9,1.6
		c0.8,1.1,1.2,2.3,1.4,3.6c0,0.6,0.1,1.3,0.4,1.8c0.3,0.4,0.6,0.7,1,0.9c1.5,1.3,2.4,3.8,1,5.1c1.6,0.4,2.8,1.8,3,3.4
		c0.9-0.8,2.2-0.4,3.2,0.2c1,0.6,2.1,1.3,3.2,1.1c0.8-0.2,1.5-0.8,2.3-0.6c1.2,0.2,1.6,2,2.8,2.2c1,0.2,2.2-0.8,3.1-0.4
		c0.3,0.2,0.6,0.5,0.9,0.7c0.7,0.4,1.6-0.1,2.4-0.3c2-0.4,4,0.2,5.4,1.7c1.3,1.5,2.3,3.2,3,5.1c0.5,1,0.7,2.1,0.7,3.2
		c0,1.1-0.7,2.1-1.7,2.6c-9.5,3-19.7,3-29.7,3c-2.9,0-6-0.1-8.7-1.2c-2.5-1-4.5-2.8-6.6-4.5c-3.7-3.2-7.5-6.5-10.5-10.3
		c-3.9-5-6.6-10.8-9.1-16.6c-0.8-1.5-1.3-3.2-1.6-4.9c-0.1-2,0.2-4.1,0.9-6c0.8-2.5,1.8-4.9,2.9-7.3
		C287.6,411.4,290.6,408.4,294.3,406.8z"/>
</g>
<path class="st17" d="M371.5,471.9c1.6,0,5,0.1,9,0.9c23.3,4.8,39.5,27.3,50,41.9c6.3,8.7,6.8,11,11.6,15.1
	c11.6,9.8,25.3,11.1,31.2,11.6c22.4,2.1,106.6-5.6,219.9-22.2"/>
<path class="st18" d="M672.2,363.8h78.9c4.4,0,8,3.6,8,8v28c0,4.4-3.6,8-8,8h-78.9c-4.4,0-8-3.6-8-8v-28
	C664.2,367.4,667.8,363.8,672.2,363.8z"/>
<rect x="671.7" y="401.1" class="st2" width="79.8" height="0.8"/>
<rect x="671.7" y="370.7" class="st19" width="79.8" height="30.3"/>
<circle class="st2" cx="690.3" cy="386.5" r="11"/>
<circle class="st2" cx="733" cy="386.5" r="11"/>
<rect x="703.4" y="407.9" class="st18" width="16.5" height="9.6"/>
<rect x="677.2" y="414.8" class="st7" width="68.8" height="55.1"/>
<rect x="675.9" y="480.8" class="st18" width="71.6" height="6.9"/>
<polygon class="st18" points="687.6,504.2 687.6,512.5 687.6,524.9 687.6,531.8 687.6,535.9 700,535.9 700,531.8 700,524.9 
	700,512.5 700,504.2 700,494.6 687.6,494.6 "/>
<polygon class="st18" points="724.7,494.6 724.7,504.2 724.7,512.5 724.7,524.9 724.7,531.8 724.7,535.9 737.1,535.9 737.1,531.8 
	737.1,524.9 737.1,512.5 737.1,504.2 737.1,494.6 "/>
<path class="st18" d="M667.9,427.2v12.7c-3.4,0.6-6.6,2.1-9.2,4.4c-2.4,2.2-4.3,4.9-5.4,8c-1.5,3.9-2.4,8-2.7,12.2
	c-0.4,5.5-0.1,11,0.8,16.4h-13.8c-0.6-6.6-0.5-13.2,0.4-19.7c0.6-5.4,2.1-10.7,4.4-15.6c4-8.4,9.7-12.9,14.6-15.4
	C660.4,428.4,664.1,427.4,667.9,427.2z"/>
<rect x="687.6" y="494.6" class="st19" width="12.4" height="9.6"/>
<rect x="687.6" y="512.5" class="st19" width="12.4" height="12.4"/>
<rect x="687.6" y="531.8" class="st19" width="12.4" height="4.1"/>
<rect x="724.7" y="494.6" class="st19" width="12.4" height="9.6"/>
<rect x="724.7" y="512.5" class="st19" width="12.4" height="12.4"/>
<rect x="724.7" y="531.8" class="st19" width="12.4" height="4.1"/>
<path class="st19" d="M667.9,427.2v12.7c-3.4,0.6-6.6,2.1-9.2,4.4l-1.7-14.2C660.4,428.4,664.1,427.4,667.9,427.2z"/>
<path class="st19" d="M653.3,452.3c-1.5,3.9-2.4,8-2.7,12.2l-12.6-3.4c0.6-5.4,2.1-10.7,4.4-15.6L653.3,452.3z"/>
<path class="st18" d="M755.4,427.2v12.7c3.4,0.6,6.6,2.1,9.2,4.4c2.4,2.2,4.3,4.9,5.4,8c1.5,3.9,2.4,8,2.7,12.2
	c0.4,5.5,0.1,11-0.8,16.4h13.8c0.6-6.6,0.5-13.2-0.4-19.7c-0.6-5.4-2.1-10.7-4.4-15.6c-4-8.4-9.7-12.9-14.6-15.4
	C762.9,428.4,759.2,427.4,755.4,427.2z"/>
<path class="st19" d="M755.4,427.2v12.7c3.4,0.6,6.6,2.1,9.2,4.4l1.7-14.2C762.9,428.4,759.2,427.4,755.4,427.2z"/>
<path class="st19" d="M770,452.3c1.5,3.9,2.4,8,2.7,12.2l12.6-3.4c-0.6-5.4-2.1-10.7-4.4-15.6L770,452.3z"/>
<rect x="703.4" y="407.9" class="st2" width="16.5" height="1.1"/>
<path class="st2" d="M747.3,424.6v23.1c-0.8-0.9-1.3-2.1-1.3-3.3v-16.5C746,426.6,746.5,425.5,747.3,424.6z"/>
<path class="st2" d="M677.5,426.1v17.3c-0.1,1.1-0.5,2.1-1.3,2.9v-23.1C677,424,677.4,425,677.5,426.1z"/>
<rect x="680.7" y="469.8" class="st2" width="61.9" height="0.8"/>
<rect x="679.3" y="487.7" class="st2" width="30.3" height="0.6"/>
<rect x="712.3" y="487.7" class="st2" width="30.3" height="0.6"/>
<rect x="682.7" y="323.1" class="st18" width="4.7" height="40.8"/>
<rect x="737" y="323.1" class="st18" width="4.7" height="40.8"/>
<circle class="st2" cx="684.9" cy="323.4" r="5.4"/>
<circle class="st18" cx="684.9" cy="323.1" r="5.4"/>
<circle class="st2" cx="739.6" cy="323.4" r="5.4"/>
<circle class="st18" cx="739.6" cy="323.1" r="5.4"/>
<rect x="757.6" y="359.2" transform="matrix(0.9545 -0.2982 0.2982 0.9545 -72.446 249.2473)" class="st18" width="45.8" height="5.6"/>
<path class="st8" d="M821,559.3c0,0-23.9-4.8-30.3-11.2c-6.4-6.4-35.1-17.6-38.3-9.6c-3.2,8-43.1,35.1-16,39.9s63.8,6.4,71.8,3.2
	C816.2,578.4,821,559.3,821,559.3z"/>
<path class="st9" d="M736.4,575.4c27.1,4.8,63.8,6.4,71.8,3.2c6.1-2.4,10.3-14.1,12-19.5c0.5,0.1,0.8,0.2,0.8,0.2
	s-4.8,19.2-12.8,22.3s-44.7,1.6-71.8-3.2c-7.8-1.4-10.1-4.6-9.2-8.7C727.8,572.4,730.5,574.4,736.4,575.4z"/>
<linearGradient id="SVGID_1_" gradientUnits="userSpaceOnUse" x1="855.5676" y1="-60.9542" x2="855.5676" y2="198.2246" gradientTransform="matrix(1 0 0 -1 -37.6617 536.634)">
	<stop  offset="0" style="stop-color:#808181;stop-opacity:0.25"/>
	<stop  offset="0.5351" style="stop-color:#808181;stop-opacity:0.12"/>
	<stop  offset="1" style="stop-color:#808181;stop-opacity:0.1"/>
</linearGradient>
<path class="st20" d="M874.1,350.5c-0.4-1.1-1.1-2-2-2.7c-6.4-5.9-16.8-4.1-24.8-7.7c-1.8-0.8-3.7-2-5.7-1.7
	c-2.8,0.4-5.4,3.6-7.8,2.2l0.2,0.5c-0.1,0-0.1-0.1-0.2-0.1c0.6,1.8,1.2,3.6,1.8,5.4c0.7,2.1,1.4,4.2,2.7,6
	c-6.5,5.7-7.2,15.6-1.5,22.1c1.5,1.7,3.3,3,5.3,4c0.1,0.2,0.2,0.4,0.2,0.5c0.1,0,0.2,0.1,0.2,0.1c0.5,1.2,0.9,2.5,1.2,3.8
	c-2.1,0.3-5.7,2.6-9.2,5.9l-7.1-0.2c-4.6-0.2-9-1.7-12.7-4.3l-21.2-15.2c-1.5,0.1-2.9,0.8-4.1,1.8c-2.6-2.7-4.9-5.6-4.7-7.3
	c0,0-9.9-18.5-13.4-9.2c-3.6,9.2,6.7,18.9,6.7,18.9l6.5,8.5c-0.3,1.5-0.4,3-0.5,4.5c8.1,9.2,36.3,17.6,36.3,17.6l4.4,0.2
	c0,0.1,0,0.1,0,0.2c-0.3,1.2-0.4,2.3-0.4,3.5c0,0.2,0,0.3,0,0.5c0,0.1,0,0.2,0,0.4c0.2,14.7,2.2,59.7,2.2,59.7
	c0.4-0.2,0.8-0.3,1.2-0.5l-0.3,4c0,0-18.8,2.6-32.7,7.9s-14.3,11.4-14.3,11.4v54.3c-4,2-10.2,4.7-13.4,3.3c-3.5-1.6-5.4-0.2-5.8,1.1
	l0,0v0c-0.1,0.3-0.1,0.5,0,0.8l0,0c0,0.1,0.1,0.2,0.1,0.3l0,0c0.1,0.1,0.1,0.2,0.2,0.3c1.3,1.3,30.5,12.7,37.2,11
	c0.2-0.1,0.4-0.1,0.6-0.2c0.1,0,0.1-0.1,0.2-0.1c0.1-0.1,0.3-0.1,0.4-0.2c0.1,0,0.1-0.1,0.2-0.1c0.1-0.1,0.2-0.1,0.3-0.2
	c0.1-0.1,0.1-0.1,0.2-0.2c0.1-0.1,0.2-0.2,0.3-0.2c0.1-0.1,0.1-0.1,0.2-0.2c0.1-0.1,0.2-0.2,0.2-0.3c0.1-0.1,0.1-0.1,0.1-0.2
	c0.1-0.1,0.1-0.2,0.2-0.3c0-0.1,0.1-0.1,0.1-0.2c0.1-0.1,0.1-0.2,0.2-0.3c0-0.1,0.1-0.2,0.1-0.2c0.1-0.1,0.1-0.2,0.2-0.4
	c0-0.1,0.1-0.2,0.1-0.2c0-0.1,0.1-0.3,0.1-0.4c0-0.1,0-0.1,0.1-0.2c0-0.1,0.1-0.3,0.1-0.4c0-0.1,0-0.1,0-0.2c0-0.2,0.1-0.3,0.1-0.5
	c0-0.1,0-0.1,0-0.2c0-0.2,0.1-0.4,0.1-0.5c0-0.1,0-0.1,0-0.2c0-0.2,0-0.4,0.1-0.6c0,0,0-0.1,0-0.1c0-0.2,0-0.4,0-0.6
	c0,0,0-0.1,0-0.1c0-0.2,0-0.4,0-0.7l0,0c0-2.6-0.3-5.2-0.9-7.8l0,0l1.6-46.2c8.8,0.1,17.6-0.2,26.4-1l1,22.1c0,0,0,14.5,4.9,21.1
	c4.2,5.6,9.1,30.6,10.4,37.7c-1.8,3.5-5.3,7.7-11.3,7.6c0,0-11.4-1-10.7,2.1l0,0c0,0.1,0,0.2,0.1,0.2l0,0c0,0.1,0.1,0.2,0.1,0.3l0,0
	c0,0.1,0.1,0.2,0.2,0.2c0,0,0,0,0,0.1c0.1,0.1,0.1,0.2,0.2,0.3l0,0c0.1,0.1,0.2,0.2,0.2,0.3c0,0,0,0.1,0.1,0.1
	c0.1,0.1,0.2,0.2,0.3,0.3c5.8,5.3,39.9,6.2,39.9,6.2l0,0l0,0l0-0.1l0,0c0,0,0-0.1,0-0.1l0,0c0-1.5-0.2-9.5-2.3-15.6h0.5
	c0,0-4.9-44.4-9-49.6c0,0-1.1-23.4,1.3-38.1c0.1-0.1,0.3-0.1,0.4-0.2c11.3-4.2,12.1-14.6,10.9-22.2c2.1,0.7,3.4,1.2,3.4,1.2
	s0-0.3-0.1-0.9c0.1,0,0.1,0,0.1,0s-0.2-1.4-0.6-3.6c-0.8-6-2.4-16.4-4-21.4c-0.3-1.1-0.5-2-0.8-2.7c-1-3-1.6-6-2-9.1
	c-0.5-4-0.7-8.1-0.7-12.1c0-5.4,0.5-10.8,1.2-16.1c0.7-4.7,1.3-10,1.2-13.7c0-1.3,0-2.6-0.3-3.9c-0.6-2.7-3.2-4.5-6-5.7
	c-0.2-0.1-0.4-0.1-0.5-0.2c0.1-1,0.2-2.2,0.3-3.5c0.7,0.5,1.5,0.6,2.3,0.5c1.2-0.3,2-1.2,2.8-2.2c4-4.9,8.1-10,9.6-16
	c0.6-2.7,0.9-5.5,0.8-8.3c0-0.2,0-0.3,0-0.5C874.5,352.6,874.4,351.5,874.1,350.5z"/>
<path class="st21" d="M838,374.3c0,0,6,9,4.7,13.3c-1.3,4.3,14.2,1.7,14.2,1.7s0.4-16.8,3.4-20.6C863.3,364.8,838,374.3,838,374.3z"
	/>
<path class="st21" d="M798.2,380.1c0,0-12.5-10.3-12-14.2c0,0-9.5-18.1-12.9-9c-3.4,9,6.4,18.5,6.4,18.5l12,15.9L798.2,380.1z"/>
<path class="st22" d="M785.5,541.9c0,0-11.6,7.3-16.3,5.2c-4.7-2.1-6.4,1.3-5.2,2.6c1.3,1.3,29.2,12.5,35.7,10.7
	c6.4-1.7,3.2-15.8,3.2-15.8L785.5,541.9z"/>
<path class="st22" d="M847,573.3c0,0-2.8,11.8-12.5,11.6c0,0-14.6-1.3-9,3.9c5.6,5.2,38.3,6,38.3,6s0-17.6-6-21.5
	C851.7,569.4,847,573.3,847,573.3z"/>
<path class="st23" d="M829.4,489.9l1.3,30.1c0,0,0,14.2,4.7,20.6c4.7,6.4,10.3,38.7,10.3,38.7H862c0,0-4.7-43.4-8.6-48.6
	c0,0-1.7-38.3,4.3-46.8L829.4,489.9z"/>
<path class="st2" d="M829.4,489.9l1.3,30.1c0,0,0,14.2,4.7,20.6c4.7,6.4,10.3,38.7,10.3,38.7H862c0,0-4.7-43.4-8.6-48.6
	c0,0-1.7-38.3,4.3-46.8L829.4,489.9z"/>
<path class="st23" d="M863.3,462.8c0,0,9.9,23.6-8.2,30.5c-18.1,6.9-50.7,6-50.7,6l-1.7,49.9c0,0-20.2,2.6-20.6-3.9v-54.6
	c0,0,0.4-6,13.8-11.2c13.3-5.2,31.4-7.7,31.4-7.7l0.9-11.2L863.3,462.8z"/>
<path class="st2" d="M847.5,385c3.4-0.4,6.9,0.1,10.1,1.4c2.6,1.1,5.2,2.8,5.7,5.5c0.7,3.2-0.1,10.3-0.9,16.3
	c-1.4,9.4-1.6,19-0.5,28.5c0.4,3.9,1.1,7.4,1.9,8.9c2.6,4.7,5.2,27.1,5.2,27.1s-28.4-10.7-42.6-4.3c0,0-1.9-44.1-2.1-58.5
	c-0.2-11.1,14-23.9,18.7-24.3C845.7,385.4,844.7,385.3,847.5,385z"/>
<path class="st7" d="M847.5,384.1c3.4-0.4,6.9,0.1,10.1,1.4c2.6,1.1,5.2,2.8,5.7,5.5c0.7,3.2-0.1,10.3-0.9,16.3
	c-1.4,9.4-1.6,19-0.5,28.5c0.3,3,1,6,1.9,8.9c1.9,5.8,5.2,27.1,5.2,27.1s-28.4-10.7-42.6-4.3c0,0-1.9-44.1-2.1-58.5
	c-0.2-11.1,14-23.9,18.7-24.3C845.7,384.6,844.7,384.4,847.5,384.1z"/>
<path class="st2" d="M855.2,407.8l-30.5-1.7c0,0-1.9-15,2.5-14.8l30.2,1.1C857.3,392.4,863.8,400.1,855.2,407.8z"/>
<path class="st7" d="M855.2,407l-34.8-1.7c0,0-27.1-8.2-34.8-17.2c0,0,0.4-15.9,9-16.8l20.3,14.9c3.6,2.6,7.8,4.1,12.2,4.2l30.2,1.1
	C857.3,391.5,863.8,399.2,855.2,407z"/>
<path class="st2" d="M856.7,376.2c0.5-4.1,2.4-5.4,3.7-7.1c3-3.9-22.4,5.6-22.4,5.6c1.3,2,2.5,4.1,3.4,6.3c2,0.9,4.2,1.4,6.5,1.4
	C851.6,382.5,854,378.4,856.7,376.2z"/>
<circle class="st21" cx="847.9" cy="366.6" r="15.5"/>
<path class="st2" d="M838.1,355.7c-1.6-1.8-2.4-4.2-3.2-6.5l-1.7-5.3c2.3,1.4,4.8-1.7,7.5-2.2c1.9-0.3,3.7,0.8,5.5,1.6
	c7.7,3.5,17.6,1.8,23.8,7.5c0.8,0.7,1.5,1.7,1.9,2.7c0.3,1,0.4,2,0.3,3c0,2.7-0.2,5.4-0.8,8.1c-1.5,5.9-5.4,10.9-9.2,15.7
	c-0.7,0.9-1.5,1.9-2.7,2.1c-2.2,0.5-3.9-1.9-4.8-4c-1.1-2.8-2-5.7-2.5-8.6c-0.1-1.3-0.5-2.5-1-3.6c-1.3-2.4-4.6-4.6-6.6-6.4
	C842.6,357.9,839.9,357.7,838.1,355.7z"/>
<path class="st24" d="M838.1,355.3c-1.6-1.8-2.4-4.2-3.2-6.5l-1.7-5.3c2.3,1.4,4.8-1.7,7.5-2.2c1.9-0.3,3.7,0.8,5.5,1.6
	c7.7,3.5,17.6,1.8,23.8,7.5c0.8,0.7,1.5,1.7,1.9,2.7c0.3,1,0.4,2,0.3,3c0,2.7-0.2,5.4-0.8,8.1c-1.5,5.9-5.4,10.9-9.2,15.7
	c-0.7,0.9-1.5,1.9-2.7,2.1c-2.2,0.5-3.9-1.9-4.8-4c-1.1-2.8-2-5.7-2.5-8.6c-0.1-1.3-0.5-2.5-1-3.6c-1.3-2.4-4.6-4.6-6.6-6.4
	C842.6,357.5,839.9,357.3,838.1,355.3z"/>
<ellipse class="st21" cx="851.9" cy="368.3" rx="1.3" ry="2.8"/>
<path class="st2" d="M859.7,442.9c0,0-0.9,2.6-5.2,2.1c-4.3-0.4-16.8-1.3-16.8,0"/>
<path class="st25" d="M825.5,588.3c-0.6-0.5-1-1.1-1.3-1.8c-0.1,0.6,0.2,1.3,1.3,2.2c5.6,5.2,38.3,6,38.3,6s0-0.2,0-0.4
	C863.5,594.4,831.1,593.5,825.5,588.3z"/>
<path class="st25" d="M799.7,559.5c-6.4,1.7-34.4-9.5-35.7-10.7c-0.2-0.2-0.3-0.4-0.4-0.6c-0.2,0.5,0,1.1,0.4,1.5
	c1.3,1.3,29.2,12.5,35.7,10.7c3.3-0.9,4.1-5,4-8.9C803.6,555.1,802.8,558.7,799.7,559.5z"/>
<path class="st26" d="M606.3,513.7c-1.6-0.1-2.9,0.7-4.3,1.3c-3.9,1.8-8.5,2.2-13.1,1.1c-3.3-0.8-7.4-2.1-9.3,0.3
	c-0.5,0.6-0.7,1.3-1.2,1.9c-2.1,2.4-6.5-0.2-9.9,0.2c-2.5,0.3-4.2,2.2-5.7,4.1c-1.9,2.3-3.8,4.7-3.9,7.9c0,0.9,0.1,1.8-0.2,2.5
	c-0.5,1.8-2.6,2.4-3.3,4.1c-0.8,2.3,1.6,5.3,4.1,6c2.5,0.8,5,0,7.3-0.6c6.2-1.8,12.9-3.2,19.8-1.8c6.6,1.3,14,5.1,19.2,1.9
	c2.2-1.4,3.8-4,6.5-4.3c1.3-0.2,2.7,0.2,4,0.2c3.9-0.2,6.1-4.4,5.5-8.5C620.8,523.8,612.8,514.2,606.3,513.7z"/>
</svg>
