<?xml version="1.0" encoding="utf-8"?>
<!-- Generator: Adobe Illustrator 23.0.1, SVG Export Plug-In . SVG Version: 6.00 Build 0)  -->
<svg version="1.1" id="Layer_1" xmlns="http://www.w3.org/2000/svg" xmlns:xlink="http://www.w3.org/1999/xlink" x="0px" y="0px"
	 viewBox="0 0 900 600" style="enable-background:new 0 0 900 600;" xml:space="preserve">
<style type="text/css">
	.st0{fill:#F1F1F1;}
	.st1{fill:#403D56;}
	.st2{fill:#281D37;}
	.st3{fill:#463360;}
	.st4{fill:#EC6C53;}
	.st5{opacity:0.1;enable-background:new    ;}
	.st6{fill:#2F2F41;}
	.st7{fill:#5C4896;}
	.st8{fill:#A7A7A6;}
	.st9{opacity:0.2;enable-background:new    ;}
	.st10{fill:#F6BCC3;}
	.st11{fill:#F0F0F0;}
	.st12{fill:#50537C;}
	.st13{fill:#575B89;}
	.st14{fill:#422876;}
	.st15{fill:#434651;}
	.st16{fill:#535562;}
	.st17{fill:none;stroke:#545562;stroke-width:3;stroke-miterlimit:10;}
	.st18{fill:#FDC713;}
	.st19{opacity:0.3;enable-background:new    ;}
	.st20{fill:#6A1221;}
	.st21{fill:url(#SVGID_1_);}
	.st22{fill:#F6C3A5;}
	.st23{fill:#545562;}
	.st24{fill:#575987;}
	.st25{fill:#632652;}
	.st26{opacity:0.5;fill:#FFFFFF;enable-background:new    ;}
	.st27{opacity:0.5;fill:#DDE2F2;enable-background:new    ;}
</style>
<circle class="st0" cx="400" cy="106.4" r="2.4"/>
<circle class="st0" cx="333.3" cy="189.1" r="2.4"/>
<circle class="st0" cx="496.4" cy="203.6" r="1.6"/>
<circle class="st0" cx="158.9" cy="239.8" r="1.6"/>
<circle class="st0" cx="506.1" cy="104" r="1.6"/>
<circle class="st0" cx="605.7" cy="181.1" r="1.6"/>
<circle class="st0" cx="703.8" cy="303.3" r="1.6"/>
<polygon class="st0" points="258.5,121.8 256.3,121.8 256.3,119.6 255.1,119.6 255.1,121.8 252.9,121.8 252.9,123 255.1,123 
	255.1,125.3 256.3,125.3 256.3,123 258.5,123 "/>
<polygon class="st0" points="694.2,365.4 691.9,365.4 691.9,363.2 690.8,363.2 690.8,365.4 688.5,365.4 688.5,366.6 690.8,366.6 
	690.8,368.8 691.9,368.8 691.9,366.6 694.2,366.6 "/>
<path class="st1" d="M887.1,517.9c0,13.3-195.8,59.5-437.2,59.5S12.6,531.2,12.6,517.9s195.8,11.3,437.2,11.3
	S887.1,504.6,887.1,517.9z"/>
<path class="st2" d="M887.1,517.9c0,13.3-195.8,59.5-437.2,59.5S12.6,531.2,12.6,517.9s195.8,11.3,437.2,11.3
	S887.1,504.6,887.1,517.9z"/>
<ellipse class="st3" cx="449.8" cy="517.9" rx="437.2" ry="24.1"/>
<path class="st4" d="M500.3,479.9c0,26.6-11.9,19.3-26.5,19.3c-14.6,0-26.5,7.3-26.5-19.3s26.5-77.2,26.5-77.2
	S500.3,453.3,500.3,479.9z"/>
<path class="st5" d="M485.9,490.1c0,12.1-5.4,8.8-12.1,8.8s-12.1,3.3-12.1-8.8c0-12.1,12.1-35.1,12.1-35.1S485.9,478,485.9,490.1z"
	/>
<path class="st6" d="M444.1,506.4h59.5c4,0,7.2,3.2,7.2,7.2s-3.2,7.2-7.2,7.2h-59.5c-4,0-7.2-3.2-7.2-7.2S440.1,506.4,444.1,506.4z"
	/>
<path class="st6" d="M444.1,491.9h59.5c4,0,7.2,3.2,7.2,7.2l0,0c0,4-3.2,7.2-7.2,7.2h-59.5c-4,0-7.2-3.2-7.2-7.2l0,0
	C436.9,495.2,440.1,491.9,444.1,491.9z"/>
<path class="st2" d="M122.7,418.7c0,44.5,27.9,80.5,62.4,80.5"/>
<path class="st7" d="M185.1,499.1c0-45,31.1-81.4,69.6-81.4"/>
<path class="st7" d="M145.3,422.7c0,42.3,17.8,76.4,39.8,76.4"/>
<path class="st2" d="M185.1,499.1c0-57.5,36-104,80.5-104"/>
<path class="st8" d="M172,499.7c0,0,8.8-0.3,11.5-2.2c2.7-1.9,13.6-4.2,14.3-1.1c0.7,3,13.3,15.1,3.3,15.2
	c-10,0.1-23.2-1.6-25.9-3.2C172.5,506.8,172,499.7,172,499.7z"/>
<path class="st9" d="M201.2,510.6c-10,0.1-23.2-1.6-25.9-3.2c-2-1.2-2.8-5.7-3.1-7.7c-0.2,0-0.3,0-0.3,0s0.6,7.1,3.2,8.8
	s15.9,3.3,25.9,3.2c2.9,0,3.9-1,3.8-2.6C204.5,510,203.4,510.6,201.2,510.6z"/>
<path class="st2" d="M592.4,448c0,30.6,19.2,55.3,42.9,55.3"/>
<path class="st7" d="M635.3,503.3c0-30.9,21.4-55.9,47.8-55.9"/>
<path class="st7" d="M608,450.8c0,29,12.2,52.5,27.3,52.5"/>
<path class="st2" d="M635.3,503.3c0-39.5,24.7-71.5,55.3-71.5"/>
<path class="st8" d="M626.3,503.7c0,0,6.1-0.2,7.9-1.5c1.8-1.3,9.4-2.9,9.8-0.8c0.5,2.1,9.1,10.4,2.3,10.5
	c-6.9,0.1-15.9-1.1-17.8-2.2C626.7,508.6,626.3,503.7,626.3,503.7z"/>
<path class="st9" d="M646.4,511.2c-6.9,0.1-15.9-1.1-17.8-2.2c-1.4-0.8-1.9-3.9-2.1-5.3c-0.1,0-0.2,0-0.2,0s0.4,4.9,2.2,6
	c1.8,1.1,10.9,2.2,17.8,2.2c2,0,2.7-0.7,2.6-1.8C648.6,510.8,647.9,511.2,646.4,511.2z"/>
<path class="st8" d="M731,521.7c0,0,9.1-1.4,11.7-3.7c2.5-2.3,13.6-6,14.6-2.9c1.1,3.1,15.7,14,5.3,15.4s-24.2,1.3-27.2-0.1
	S731,521.7,731,521.7z"/>
<path class="st9" d="M762.7,529.3c-10.3,1.3-24.2,1.3-27.2-0.1c-2.3-1-3.6-5.5-4.2-7.6c-0.2,0-0.3,0-0.3,0s1.5,7.3,4.4,8.7
	c3,1.3,16.9,1.4,27.2,0.1c3-0.4,3.9-1.6,3.6-3.1C766,528.3,764.9,529,762.7,529.3z"/>
<path class="st8" d="M506.3,521c0,0,7.7-1.2,9.8-3.1c2.1-1.9,11.5-5.1,12.4-2.5c0.9,2.6,13.2,11.8,4.5,13s-20.5,1.1-23,0
	C507.5,527.2,506.3,521,506.3,521z"/>
<path class="st9" d="M533,527.4c-8.7,1.1-20.5,1.1-23,0c-1.9-0.9-3.1-4.7-3.5-6.4c-0.2,0-0.3,0-0.3,0s1.2,6.2,3.7,7.3s14.2,1.2,23,0
	c2.5-0.3,3.3-1.3,3.1-2.6C535.8,526.6,534.9,527.2,533,527.4z"/>
<path class="st8" d="M111,517.2c0,0,6-0.9,7.7-2.4c1.7-1.5,8.9-4,9.6-1.9c0.7,2,10.3,9.2,3.5,10.1c-6.8,0.9-15.9,0.8-17.9,0
	C111.9,522,111,517.2,111,517.2z"/>
<path class="st9" d="M131.8,522.2c-6.8,0.9-15.9,0.8-17.9,0c-1.5-0.7-2.4-3.6-2.7-5c-0.1,0-0.2,0-0.2,0s1,4.8,2.9,5.7
	c1.9,0.9,11.1,0.9,17.9,0c2-0.3,2.6-1,2.4-2.1C133.9,521.5,133.2,522,131.8,522.2z"/>
<path class="st5" d="M321,507.7c0,24.3-33.9,16.8-75.3,16.8s-74.8,7.5-74.8-16.8s33.9-29.6,75.3-29.6S321,483.4,321,507.7z"/>
<path class="st3" d="M321,501.7c0,24.3-33.9,16.8-75.3,16.8s-74.8,7.5-74.8-16.8c0-24.3,33.9-29.6,75.3-29.6S321,477.4,321,501.7z"
	/>
<path class="st10" d="M321.9,389.3c-1.9,1.2-3.6,2.7-5.2,4.2c-1.6,1.6-2.8,3.6-3.3,5.8c-1.3-2.2-2.4-4.5-3.3-6.9
	c-1.9-4.2-4.1-8.4-6.5-12.3c3-1.6,5.5-3.9,7.1-6.9c4.3,3.4,8.7,6.9,11.2,11.7c0.4,0.8,1.5,1.7,1.8,2.4
	C324.2,388.4,322.7,388.8,321.9,389.3z"/>
<path class="st11" d="M388.4,483.5c4.2,1.3,8.1,3.4,11.6,6.2c0.3,0.2,0.4,0.4,0.5,0.7c0.1,0.7-0.8,0.9-1.5,1.1
	c-1.9,0.5-3.1,2.3-4.5,3.7c-1.4,1.4-3.7,2.5-5.3,1.4c-0.4-0.3-0.8-0.7-1.1-1.2l-6.9-9c2.3-1.3,4.8-2.4,7.3-3.2"/>
<path class="st12" d="M400.5,490.2c0.9,0.9,1.3,2.3,2.2,3.2c0.6,0.6,1.3,1.1,2,1.4l5.3,2.9c0.8,0.5,1.7,0.9,2.6,1.2
	c1,0.3,2,0.5,3,0.6c1.5,0.3,2.9,0.7,4.3,1.3c1,0.4,2.2,1.2,2.2,2.3c0,0.5-0.3,1.1-0.6,1.5c-2.1,2.6-5.8,3.2-9.1,3.6
	c-7.2,0.8-14.6,1.3-21.6-0.4c-1.4-0.3-2.7-0.8-3.8-1.6c-2.1-1.8-2.6-5-1.8-7.6c0.2-1,0.8-1.9,1.7-2.5c1.1-0.6,2.5-0.3,3.8-0.4
	c1.4-0.2,2.7-0.6,3.9-1.2c0.8-0.4,1.7-0.8,1.9-1.8c0.2-0.9-0.9-1.8-0.7-2.6C396.3,488.2,399.7,489.3,400.5,490.2z"/>
<path class="st11" d="M406.7,512.7c0.7,0.5,1.5,1,2.2,1.5c0.7,0.4,1.2,0.9,1.6,1.6c0.5,1.1-0.2,2.4-0.9,3.4c-2.2,3-5.1,5.3-8.6,6.6
	c-1.2,0.5-2.4,0.8-3.7,0.9c-0.3,0-0.6,0-0.9-0.1c-0.7-0.4-0.6-1.3-0.6-2.1c0-2.2-1.7-4-3.2-5.7c-1.5-1.6-3-3.6-2.7-5.8
	c0.3-1.3,1-2.5,1.9-3.4c0.8-1,1.8-2,2.9-2.7c1.6-1,2.1-0.5,3.6,0.5C401.2,509.1,403.9,510.9,406.7,512.7z"/>
<path class="st13" d="M399.5,523.5c1.2,0.3,2.5,0,3.5-0.8c1-0.8,1.7-1.8,2.3-2.9c0.5-1,1-2,1.4-3.1c0.5-1.2,0.9-2.6,2-3.4
	c1.3-0.9,3.2-0.6,4.5,0.3c1.3,1,2.4,2.1,3.5,3.3c2.8,2.6,6.2,4.5,9.9,5.5c3.7,1,7.4,1.8,11.2,2.4c0.8,0.1,1.5,0.3,2.1,0.7
	c1.5,0.9,2,3,1.6,4.7c-0.5,1.7-1.5,3.2-2.8,4.5c-1,1.2-2.3,2.2-3.7,2.9c-1.2,0.4-2.5,0.7-3.7,0.7c-6.2,0.4-12.4-0.1-18.5-1.4
	c-2.2-0.6-4.5-1.1-6.8-1.4c-1.4-0.1-2.8-0.1-4.2-0.2c-2.8-0.2-5.5-0.9-8-2.1c-0.6-0.2-1.1-0.7-1.5-1.2c-0.2-0.5-0.2-1.1-0.1-1.6
	l0.9-8.1c0.1-0.7,0.3-1.6,1-1.7c0.7-0.1,1.2,0.6,1.6,1.1c1.7,2,4.5,2.6,6.9,1.5"/>
<path class="st12" d="M355.2,424.7c4.1-0.5,8.8-0.5,11.5,2.5c1.7,1.9,2.2,4.5,2.8,6.9c0.9,4.1,2.4,8,4.4,11.7
	c1.3,2.3,2.9,4.4,3.9,6.9c1,2.5,1.4,5.2,2,7.8c2.4,10.4,8.2,19.6,16.5,26.3c-1.5,4-5.7,6.3-9.8,7.3c-1.8,0.8-3.9,0.2-5.1-1.4
	c-1.9-2.1-3.7-4.3-5.4-6.6c-5.9-7.9-12-16.1-15.2-25.4c-1.1-3.3-2.3-7.1-5.5-8.5c-1.8-0.8-3.9-0.5-5.9-0.2
	c-4.4,0.7-8.7,1.8-12.9,3.3c-3,1-5.5,1.1-13.7,1.1c-28.6,0-47,0-47.5-3.6c-0.2-1.1,1.4-3,9.8-6.2c0.1-4.5,1.5-7.2,2.6-8.7
	c7.8-10.6,29.9-5.3,45.7-9.1c6.7-1.6,8.7-2,12.9-2.7C349.3,425.4,352.2,425,355.2,424.7z"/>
<path class="st13" d="M321.6,454.6c6,1.9,12.4,2.1,18.7,2.7c10.6,1,21,3.1,31.2,6.2c2.1,0.5,4.1,1.4,5.9,2.7
	c1.4,1.3,2.5,2.7,3.4,4.3c1.7,2.5,3.1,5.1,4.5,7.8c1.1,2.4,2,5,3.1,7.5c3.6,8.3,9.2,15.5,16.4,21c1.3,1,2.8,2.1,3.1,3.7
	c0.2,1,0,2.1-0.5,3c-1.6,3.6-4.8,6.2-8.1,8.2c-1.5,0.9-3,1.7-3.8,3.3c-5.1-2.1-8.9-6.6-12.1-11.2s-6-9.4-10.1-13.2
	c-1.8-1.7-3.8-3.1-5.2-5.1c-2.2-3-2.7-7.2-5.6-9.6c-2.9-2.4-7.1-2-10.8-1.7c-3.9,0.4-21.8,0.2-57.6-0.6c-23.2-0.5-33.4-3.4-33.5-6
	c-0.1-2,5.9-3.3,8.1-9.5c0.9-2.5,1.2-4.2,1.4-4.9C271,459.1,281.1,454.9,321.6,454.6z"/>
<path class="st14" d="M241.5,468.4c0.1-3.2,1-6.3,1.4-9.5c0.2-2,0.4-3.9,0.8-5.9c0-0.1,0-0.1,0-0.2c0.4-0.1,0.7-0.3,0.9-0.7
	c0.1-0.3,0.1-0.6,0-0.9c-0.1-0.3-0.1-0.6-0.1-0.9c1-2.2,2.1-4.4,3.4-6.5c2.2-4,3.9-8.1,5.7-12.3c1.5-3.4,2.9-6.8,4.1-10.3
	c0.8-2.6,1.5-5.3,2.5-7.9c3.5-9.3,10.8-16.6,18.9-22.2c7.8-5.4,16.4-9.4,24.7-14c0.2,0.2,0.5,0.4,0.7,0.6c5.5,5.9,7,14.3,9.8,21.8
	c1.1,3,2.6,6,2.9,9.3c0.5,4.8-1.2,9.5-3,13.9c-1.6,4.2-3.5,8.3-5.8,12.2c-1.1,1.8-2.4,3.5-3.6,5.3c-4.7,7.4-6.9,16.1-9.1,24.6
	c-1.2,4.9-3.7,9.4-5.1,14.3c-0.5,1.9-0.8,3.8-1.5,5.6s-2.2,3.5-4.2,3.7c-0.6,0.1-1.1,0-1.7-0.1c-7.2-1-13.6-5-20-8.6
	c-1.1-0.6-2.3-1.3-3.4-1.9c-1.2-0.6-2.4-1.1-3.6-1.6c-0.9-0.4-1.8-0.7-2.8-1.1c-3-1.2-6-2.5-9.2-3.4c-0.9-0.3-1.8-0.6-2.7-1
	C241.5,470,241.4,469.2,241.5,468.4z"/>
<circle class="st10" cx="323.7" cy="372.2" r="16.3"/>
<path class="st6" d="M333.6,363.4c1,1.3,2.6,1.9,4.2,1.4c1.5-0.5,2.8-1.6,3.4-3.1c0.6-1.5,0.9-3,0.9-4.6c0.1-1.2-0.3-2.5-1.1-3.4
	c-0.7-0.5-1.4-0.9-2.2-1.2c-1.1-0.5-2.1-1.3-2.9-2.3c-0.5-0.7-1-1.5-1.5-2.2c-1.8-2.6-4.9-4.6-8.1-4.1c-1.5,0.2-2.9,1-4.3,1.4
	c-4.9,1.5-10.7-0.6-15.1,2c-1.1,0.7-2.1,1.5-2.9,2.5c-1.2,1.2-2.3,2.5-3.4,3.8c-0.9,1-1.6,2.3-1.9,3.6c-0.4,2.4,1.5,4.9,0.8,7.3
	c-0.3,0.7-0.6,1.3-1,2c-0.9,1.7,1,7.6,1.1,9.5c0,0.9,0.3,1.8,0.9,2.5c0.9,0.8,2.2,0.7,3.3,0.6l2.1-0.2c0.3,0,0.6-0.1,0.9-0.2
	c0.4-0.2,0.7-0.6,1-0.9c1.5-2,1.2-8.1,3.7-8.4c0.4-0.1,0.8,0,1.1,0.2c0.5,0.3,0.7,0.9,1.1,1.3c0.9,0.8,2.2,1,3.2,0.4
	c1-0.6,1.8-1.4,2.4-2.4c0.6-1,1.3-1.9,2.2-2.7c1.3-0.9,2.7-1.5,4-2.5c1-0.9,1.5-2,2.4-3c0.7-0.8,1.9-1,2.9-0.5
	C332.6,360.7,332.8,362,333.6,363.4z"/>
<path class="st15" d="M375,428.8c-9.5-0.5-19-1.1-28.5-1.6c-3.9,10.7-7.8,21.4-11.6,32c11.6,1.4,23.2,2.8,34.8,4.2
	C371.5,452,373.2,440.4,375,428.8z"/>
<rect x="370.5" y="409.7" transform="matrix(0.973 0.2307 -0.2307 0.973 110.8158 -74.369)" class="st16" width="6" height="54"/>
<g>
	<path class="st10" d="M348.6,444c2.1,0.5,4,1.3,5.9,2.3c2,1.4,3.6,3.2,4.9,5.3c0.5,0.7,0.9,1.4,1.2,2.2c0.3,0.8,0.1,1.7-0.3,2.4
		c-0.6,0.6-1.4,1.1-2.3,1.2c-1.1,0.3-2.3,0.5-3.5,0.7c-0.7,0.2-1.4,0.2-2.1,0.1c-0.7-0.2-1.3-0.4-1.9-0.8c-2.5-1.4-4.7-3.2-6.5-5.4
		c-1.3-1.6-3.7-5.5-2.8-7.7C341.9,442.1,346.9,443.6,348.6,444z"/>
	<path class="st5" d="M289.8,398.6c3.6-1.4,7.4-2,11.2-1.8c1.3,0,2.5,0.4,3.5,1.1c0.6,0.6,1.1,1.3,1.4,2.1c1.6,3.6,2.1,7.6,1.4,11.5
		c-0.1,0.4-0.1,0.9,0.1,1.2c0.2,0.2,0.5,0.4,0.8,0.5c1.1,0.6,1.4,2,0.8,3.1c0,0.1-0.1,0.2-0.1,0.2c-0.2,0.3-0.6,0.6-0.6,0.9
		c0,0.4,0.5,0.6,0.8,0.8c1.1,0.6,1.7,1.8,1.8,3c0,0.5,0,1,0,1.5c0.2,0.6,0.5,1.1,0.9,1.6c0.8,1.1,1.2,2.3,1.4,3.6
		c0,0.6,0.1,1.3,0.4,1.8c0.3,0.4,0.6,0.7,1,0.9c1.5,1.3,2.4,3.8,1,5.1c1.6,0.4,2.8,1.8,3,3.4c0.9-0.8,2.2-0.4,3.2,0.2
		c1,0.6,2.1,1.3,3.2,1.1c0.8-0.2,1.5-0.8,2.3-0.6c1.2,0.2,1.6,2,2.8,2.2c1,0.2,2.2-0.8,3.1-0.4c0.3,0.2,0.6,0.5,0.9,0.7
		c0.7,0.4,1.6-0.1,2.4-0.3c2-0.4,4,0.2,5.4,1.7c1.3,1.5,2.3,3.2,3,5.1c0.5,1,0.7,2.1,0.7,3.2c0,1.1-0.7,2.1-1.7,2.6
		c-9.5,3-19.7,3-29.7,3c-2.9,0-6-0.1-8.7-1.2c-2.5-1-4.5-2.8-6.6-4.5c-3.7-3.2-7.5-6.5-10.5-10.3c-3.9-5-6.6-10.8-9.1-16.6
		c-0.8-1.5-1.3-3.2-1.6-4.9c-0.1-2,0.2-4.1,0.9-6c0.8-2.5,1.8-4.9,2.9-7.3C283.1,403.2,286.1,400.2,289.8,398.6z"/>
	<path class="st14" d="M290.3,397.8c3.6-1.4,7.4-2,11.2-1.8c1.3,0,2.5,0.4,3.5,1.1c0.6,0.6,1.1,1.3,1.4,2.1
		c1.6,3.6,2.1,7.6,1.4,11.5c-0.1,0.4-0.1,0.9,0.1,1.2c0.2,0.2,0.5,0.4,0.8,0.5c1.1,0.6,1.4,2,0.8,3.1c0,0.1-0.1,0.2-0.1,0.2
		c-0.2,0.3-0.6,0.6-0.6,0.9c0,0.4,0.5,0.6,0.8,0.8c1.1,0.6,1.7,1.8,1.8,3c0,0.5,0,1,0,1.5c0.2,0.6,0.5,1.1,0.9,1.6
		c0.8,1.1,1.2,2.3,1.4,3.6c0,0.6,0.1,1.3,0.4,1.8c0.3,0.4,0.6,0.7,1,0.9c1.5,1.3,2.4,3.8,1,5.1c1.6,0.4,2.8,1.8,3,3.4
		c0.9-0.8,2.2-0.4,3.2,0.2c1,0.6,2.1,1.3,3.2,1.1c0.8-0.2,1.5-0.8,2.3-0.6c1.2,0.2,1.6,2,2.8,2.2c1,0.2,2.2-0.8,3.1-0.4
		c0.3,0.2,0.6,0.5,0.9,0.7c0.7,0.4,1.6-0.1,2.4-0.3c2-0.4,4,0.2,5.4,1.7c1.3,1.5,2.3,3.2,3,5.1c0.5,1,0.7,2.1,0.7,3.2
		c0,1.1-0.7,2.1-1.7,2.6c-9.5,3-19.7,3-29.7,3c-2.9,0-6-0.1-8.7-1.2c-2.5-1-4.5-2.8-6.6-4.5c-3.7-3.2-7.5-6.5-10.5-10.3
		c-3.9-5-6.6-10.8-9.1-16.6c-0.8-1.5-1.3-3.2-1.6-4.9c-0.1-2,0.2-4.1,0.9-6c0.8-2.5,1.8-4.9,2.9-7.3
		C283.6,402.4,286.6,399.4,290.3,397.8z"/>
</g>
<path class="st17" d="M367.5,462.9c1.6,0,5,0.1,9,0.9c23.3,4.8,39.5,27.3,50,41.9c6.3,8.7,6.8,11,11.6,15.1
	c11.6,9.8,25.3,11.1,31.2,11.6c22.4,2.1,106.6-5.6,219.9-22.2"/>
<path class="st18" d="M668.2,354.8h78.9c4.4,0,8,3.6,8,8v28c0,4.4-3.6,8-8,8h-78.9c-4.4,0-8-3.6-8-8v-28
	C660.2,358.4,663.8,354.8,668.2,354.8z"/>
<rect x="667.7" y="392.1" class="st5" width="79.8" height="0.8"/>
<rect x="667.7" y="361.7" class="st19" width="79.8" height="30.3"/>
<circle class="st5" cx="686.3" cy="377.5" r="11"/>
<circle class="st5" cx="729" cy="377.5" r="11"/>
<rect x="699.4" y="398.9" class="st18" width="16.5" height="9.6"/>
<rect x="673.2" y="405.8" class="st18" width="68.8" height="55.1"/>
<rect x="671.9" y="471.8" class="st20" width="71.6" height="6.9"/>
<polygon class="st20" points="683.6,495.2 683.6,503.5 683.6,515.9 683.6,522.8 683.6,526.9 696,526.9 696,522.8 696,515.9 
	696,503.5 696,495.2 696,485.6 683.6,485.6 "/>
<polygon class="st20" points="720.7,485.6 720.7,495.2 720.7,503.5 720.7,515.9 720.7,522.8 720.7,526.9 733.1,526.9 733.1,522.8 
	733.1,515.9 733.1,503.5 733.1,495.2 733.1,485.6 "/>
<path class="st18" d="M663.9,418.2v12.7c-3.4,0.6-6.6,2.1-9.2,4.4c-2.4,2.2-4.3,4.9-5.4,8c-1.5,3.9-2.4,8-2.7,12.2
	c-0.4,5.5-0.1,11,0.8,16.4h-13.8c-0.6-6.6-0.5-13.2,0.4-19.7c0.6-5.4,2.1-10.7,4.4-15.6c4-8.4,9.7-12.9,14.6-15.4
	C656.4,419.4,660.1,418.4,663.9,418.2z"/>
<rect x="683.6" y="485.6" class="st19" width="12.4" height="9.6"/>
<rect x="683.6" y="503.5" class="st19" width="12.4" height="12.4"/>
<rect x="683.6" y="522.8" class="st19" width="12.4" height="4.1"/>
<rect x="720.7" y="485.6" class="st19" width="12.4" height="9.6"/>
<rect x="720.7" y="503.5" class="st19" width="12.4" height="12.4"/>
<rect x="720.7" y="522.8" class="st19" width="12.4" height="4.1"/>
<path class="st19" d="M663.9,418.2v12.7c-3.4,0.6-6.6,2.1-9.2,4.4l-1.7-14.2C656.4,419.4,660.1,418.4,663.9,418.2z"/>
<path class="st19" d="M649.3,443.3c-1.5,3.9-2.4,8-2.7,12.2l-12.6-3.4c0.6-5.4,2.1-10.7,4.4-15.6L649.3,443.3z"/>
<path class="st18" d="M751.4,418.2v12.7c3.4,0.6,6.6,2.1,9.2,4.4c2.4,2.2,4.3,4.9,5.4,8c1.5,3.9,2.4,8,2.7,12.2
	c0.4,5.5,0.1,11-0.8,16.4h13.8c0.6-6.6,0.5-13.2-0.4-19.7c-0.6-5.4-2.1-10.7-4.4-15.6c-4-8.4-9.7-12.9-14.6-15.4
	C758.9,419.4,755.2,418.4,751.4,418.2z"/>
<path class="st19" d="M751.4,418.2v12.7c3.4,0.6,6.6,2.1,9.2,4.4l1.7-14.2C758.9,419.4,755.2,418.4,751.4,418.2z"/>
<path class="st19" d="M766,443.3c1.5,3.9,2.4,8,2.7,12.2l12.6-3.4c-0.6-5.4-2.1-10.7-4.4-15.6L766,443.3z"/>
<rect x="699.4" y="398.9" class="st5" width="16.5" height="1.1"/>
<path class="st5" d="M743.3,415.6v23.1c-0.8-0.9-1.3-2.1-1.3-3.3v-16.5C742,417.6,742.5,416.5,743.3,415.6z"/>
<path class="st5" d="M673.5,417.1v17.3c-0.1,1.1-0.5,2.1-1.3,2.9v-23.1C673,415,673.4,416,673.5,417.1z"/>
<rect x="676.7" y="460.8" class="st5" width="61.9" height="0.8"/>
<rect x="675.3" y="478.7" class="st5" width="30.3" height="0.6"/>
<rect x="708.3" y="478.7" class="st5" width="30.3" height="0.6"/>
<rect x="678.7" y="314.1" class="st7" width="4.7" height="40.8"/>
<rect x="733" y="314.1" class="st7" width="4.7" height="40.8"/>
<circle class="st5" cx="680.9" cy="314.4" r="5.4"/>
<circle class="st7" cx="680.9" cy="314.1" r="5.4"/>
<circle class="st5" cx="735.6" cy="314.4" r="5.4"/>
<circle class="st7" cx="735.6" cy="314.1" r="5.4"/>
<rect x="753.6" y="350.2" transform="matrix(0.9545 -0.2982 0.2982 0.9545 -69.944 247.6448)" class="st20" width="45.8" height="5.6"/>
<path class="st8" d="M817,550.3c0,0-23.9-4.8-30.3-11.2c-6.4-6.4-35.1-17.6-38.3-9.6c-3.2,8-43.1,35.1-16,39.9s63.8,6.4,71.8,3.2
	C812.2,569.4,817,550.3,817,550.3z"/>
<path class="st9" d="M732.4,566.4c27.1,4.8,63.8,6.4,71.8,3.2c6.1-2.4,10.3-14.1,12-19.5c0.5,0.1,0.8,0.2,0.8,0.2
	s-4.8,19.2-12.8,22.3s-44.7,1.6-71.8-3.2c-7.8-1.4-10.1-4.6-9.2-8.7C723.8,563.4,726.5,565.4,732.4,566.4z"/>
<linearGradient id="SVGID_1_" gradientUnits="userSpaceOnUse" x1="851.5676" y1="-51.9542" x2="851.5676" y2="207.2246" gradientTransform="matrix(1 0 0 -1 -37.6617 536.634)">
	<stop  offset="0" style="stop-color:#808080;stop-opacity:0.25"/>
	<stop  offset="0.5351" style="stop-color:#808080;stop-opacity:0.12"/>
	<stop  offset="1" style="stop-color:#808080;stop-opacity:0.1"/>
</linearGradient>
<path class="st21" d="M870.1,341.5c-0.4-1.1-1.1-2-2-2.7c-6.4-5.9-16.8-4.1-24.8-7.7c-1.8-0.8-3.7-2-5.7-1.7
	c-2.8,0.4-5.4,3.6-7.8,2.2l0.2,0.5c-0.1,0-0.1-0.1-0.2-0.1c0.6,1.8,1.2,3.6,1.8,5.4c0.7,2.1,1.4,4.2,2.7,6
	c-6.5,5.7-7.2,15.6-1.5,22.1c1.5,1.7,3.3,3,5.3,4c0.1,0.2,0.2,0.4,0.2,0.5c0.1,0,0.2,0.1,0.2,0.1c0.5,1.2,0.9,2.5,1.2,3.8
	c-2.1,0.3-5.7,2.6-9.2,5.9l-7.1-0.2c-4.6-0.2-9-1.7-12.7-4.3l-21.2-15.2c-1.5,0.1-2.9,0.8-4.1,1.8c-2.6-2.7-4.9-5.6-4.7-7.3
	c0,0-9.9-18.5-13.4-9.2c-3.6,9.2,6.7,18.9,6.7,18.9l6.5,8.5c-0.3,1.5-0.4,3-0.5,4.5c8.1,9.2,36.3,17.6,36.3,17.6l4.4,0.2
	c0,0.1,0,0.1,0,0.2c-0.3,1.2-0.4,2.3-0.4,3.5c0,0.2,0,0.3,0,0.5c0,0.1,0,0.2,0,0.4c0.2,14.7,2.2,59.7,2.2,59.7
	c0.4-0.2,0.8-0.3,1.2-0.5l-0.3,4c0,0-18.8,2.6-32.7,7.9s-14.3,11.4-14.3,11.4v54.3c-4,2-10.2,4.7-13.4,3.3c-3.5-1.6-5.4-0.2-5.8,1.1
	l0,0v0c-0.1,0.3-0.1,0.5,0,0.8l0,0c0,0.1,0.1,0.2,0.1,0.3l0,0c0.1,0.1,0.1,0.2,0.2,0.3c1.3,1.3,30.5,12.7,37.2,11
	c0.2-0.1,0.4-0.1,0.6-0.2c0.1,0,0.1-0.1,0.2-0.1c0.1-0.1,0.3-0.1,0.4-0.2c0.1,0,0.1-0.1,0.2-0.1c0.1-0.1,0.2-0.1,0.3-0.2
	c0.1-0.1,0.1-0.1,0.2-0.2c0.1-0.1,0.2-0.2,0.3-0.2c0.1-0.1,0.1-0.1,0.2-0.2c0.1-0.1,0.2-0.2,0.2-0.3c0.1-0.1,0.1-0.1,0.1-0.2
	c0.1-0.1,0.1-0.2,0.2-0.3c0-0.1,0.1-0.1,0.1-0.2c0.1-0.1,0.1-0.2,0.2-0.3c0-0.1,0.1-0.2,0.1-0.2c0.1-0.1,0.1-0.2,0.2-0.4
	c0-0.1,0.1-0.2,0.1-0.2c0-0.1,0.1-0.3,0.1-0.4c0-0.1,0-0.1,0.1-0.2c0-0.1,0.1-0.3,0.1-0.4c0-0.1,0-0.1,0-0.2c0-0.2,0.1-0.3,0.1-0.5
	c0-0.1,0-0.1,0-0.2c0-0.2,0.1-0.4,0.1-0.5c0-0.1,0-0.1,0-0.2c0-0.2,0-0.4,0.1-0.6c0,0,0-0.1,0-0.1c0-0.2,0-0.4,0-0.6
	c0,0,0-0.1,0-0.1c0-0.2,0-0.4,0-0.7l0,0c0-2.6-0.3-5.2-0.9-7.8l0,0l1.6-46.2c8.8,0.1,17.6-0.2,26.4-1l1,22.1c0,0,0,14.5,4.9,21.1
	c4.2,5.6,9.1,30.6,10.4,37.7c-1.8,3.5-5.3,7.7-11.3,7.6c0,0-11.4-1-10.7,2.1l0,0c0,0.1,0,0.2,0.1,0.2l0,0c0,0.1,0.1,0.2,0.1,0.3l0,0
	c0,0.1,0.1,0.2,0.2,0.2c0,0,0,0,0,0.1c0.1,0.1,0.1,0.2,0.2,0.3l0,0c0.1,0.1,0.2,0.2,0.2,0.3c0,0,0,0.1,0.1,0.1
	c0.1,0.1,0.2,0.2,0.3,0.3c5.8,5.3,39.9,6.2,39.9,6.2l0,0l0,0l0-0.1l0,0c0,0,0-0.1,0-0.1l0,0c0-1.5-0.2-9.5-2.3-15.6h0.5
	c0,0-4.9-44.4-9-49.6c0,0-1.1-23.4,1.3-38.1c0.1-0.1,0.3-0.1,0.4-0.2c11.3-4.2,12.1-14.6,10.9-22.2c2.1,0.7,3.4,1.2,3.4,1.2
	s0-0.3-0.1-0.9c0.1,0,0.1,0,0.1,0s-0.2-1.4-0.6-3.6c-0.8-6-2.4-16.4-4-21.4c-0.3-1.1-0.5-2-0.8-2.7c-1-3-1.6-6-2-9.1
	c-0.5-4-0.7-8.1-0.7-12.1c0-5.4,0.5-10.8,1.2-16.1c0.7-4.7,1.3-10,1.2-13.7c0-1.3,0-2.6-0.3-3.9c-0.6-2.7-3.2-4.5-6-5.7
	c-0.2-0.1-0.4-0.1-0.5-0.2c0.1-1,0.2-2.2,0.3-3.5c0.7,0.5,1.5,0.6,2.3,0.5c1.2-0.3,2-1.2,2.8-2.2c4-4.9,8.1-10,9.6-16
	c0.6-2.7,0.9-5.5,0.8-8.3c0-0.2,0-0.3,0-0.5C870.5,343.6,870.4,342.5,870.1,341.5z"/>
<path class="st22" d="M834,365.3c0,0,6,9,4.7,13.3c-1.3,4.3,14.2,1.7,14.2,1.7s0.4-16.8,3.4-20.6C859.3,355.8,834,365.3,834,365.3z"
	/>
<path class="st22" d="M794.2,371.1c0,0-12.5-10.3-12-14.2c0,0-9.5-18.1-12.9-9c-3.4,9,6.4,18.5,6.4,18.5l12,15.9L794.2,371.1z"/>
<path class="st23" d="M781.5,532.9c0,0-11.6,7.3-16.3,5.2c-4.7-2.1-6.4,1.3-5.2,2.6c1.3,1.3,29.2,12.5,35.7,10.7
	c6.4-1.7,3.2-15.8,3.2-15.8L781.5,532.9z"/>
<path class="st23" d="M843,564.3c0,0-2.8,11.8-12.5,11.6c0,0-14.6-1.3-9,3.9c5.6,5.2,38.3,6,38.3,6s0-17.6-6-21.5
	C847.7,560.4,843,564.3,843,564.3z"/>
<path class="st24" d="M825.4,480.9l1.3,30.1c0,0,0,14.2,4.7,20.6c4.7,6.4,10.3,38.7,10.3,38.7H858c0,0-4.7-43.4-8.6-48.6
	c0,0-1.7-38.3,4.3-46.8L825.4,480.9z"/>
<path class="st5" d="M825.4,480.9l1.3,30.1c0,0,0,14.2,4.7,20.6c4.7,6.4,10.3,38.7,10.3,38.7H858c0,0-4.7-43.4-8.6-48.6
	c0,0-1.7-38.3,4.3-46.8L825.4,480.9z"/>
<path class="st24" d="M859.3,453.8c0,0,9.9,23.6-8.2,30.5c-18.1,6.9-50.7,6-50.7,6l-1.7,49.9c0,0-20.2,2.6-20.6-3.9v-54.6
	c0,0,0.4-6,13.8-11.2c13.3-5.2,31.4-7.7,31.4-7.7l0.9-11.2L859.3,453.8z"/>
<path class="st5" d="M843.5,376c3.4-0.4,6.9,0.1,10.1,1.4c2.6,1.1,5.2,2.8,5.7,5.5c0.7,3.2-0.1,10.3-0.9,16.3
	c-1.4,9.4-1.6,19-0.5,28.5c0.4,3.9,1.1,7.4,1.9,8.9c2.6,4.7,5.2,27.1,5.2,27.1s-28.4-10.7-42.6-4.3c0,0-1.9-44.1-2.1-58.5
	c-0.2-11.1,14-23.9,18.7-24.3C841.7,376.4,840.7,376.3,843.5,376z"/>
<path class="st7" d="M843.5,375.1c3.4-0.4,6.9,0.1,10.1,1.4c2.6,1.1,5.2,2.8,5.7,5.5c0.7,3.2-0.1,10.3-0.9,16.3
	c-1.4,9.4-1.6,19-0.5,28.5c0.3,3,1,6,1.9,8.9c1.9,5.8,5.2,27.1,5.2,27.1s-28.4-10.7-42.6-4.3c0,0-1.9-44.1-2.1-58.5
	c-0.2-11.1,14-23.9,18.7-24.3C841.7,375.6,840.7,375.4,843.5,375.1z"/>
<path class="st5" d="M851.2,398.8l-30.5-1.7c0,0-1.9-15,2.5-14.8l30.2,1.1C853.3,383.4,859.8,391.1,851.2,398.8z"/>
<path class="st7" d="M851.2,398l-34.8-1.7c0,0-27.1-8.2-34.8-17.2c0,0,0.4-15.9,9-16.8l20.3,14.9c3.6,2.6,7.8,4.1,12.2,4.2l30.2,1.1
	C853.3,382.5,859.8,390.2,851.2,398z"/>
<path class="st5" d="M852.7,367.2c0.5-4.1,2.4-5.4,3.7-7.1c3-3.9-22.4,5.6-22.4,5.6c1.3,2,2.5,4.1,3.4,6.3c2,0.9,4.2,1.4,6.5,1.4
	C847.6,373.5,850,369.4,852.7,367.2z"/>
<circle class="st22" cx="843.9" cy="357.6" r="15.5"/>
<path class="st5" d="M834.1,346.7c-1.6-1.8-2.4-4.2-3.2-6.5l-1.7-5.3c2.3,1.4,4.8-1.7,7.5-2.2c1.9-0.3,3.7,0.8,5.5,1.6
	c7.7,3.5,17.6,1.8,23.8,7.5c0.8,0.7,1.5,1.7,1.9,2.7c0.3,1,0.4,2,0.3,3c0,2.7-0.2,5.4-0.8,8.1c-1.5,5.9-5.4,10.9-9.2,15.7
	c-0.7,0.9-1.5,1.9-2.7,2.1c-2.2,0.5-3.9-1.9-4.8-4c-1.1-2.8-2-5.7-2.5-8.6c-0.1-1.3-0.5-2.5-1-3.6c-1.3-2.4-4.6-4.6-6.6-6.4
	C838.6,348.9,835.9,348.7,834.1,346.7z"/>
<path class="st25" d="M834.1,346.3c-1.6-1.8-2.4-4.2-3.2-6.5l-1.7-5.3c2.3,1.4,4.8-1.7,7.5-2.2c1.9-0.3,3.7,0.8,5.5,1.6
	c7.7,3.5,17.6,1.8,23.8,7.5c0.8,0.7,1.5,1.7,1.9,2.7c0.3,1,0.4,2,0.3,3c0,2.7-0.2,5.4-0.8,8.1c-1.5,5.9-5.4,10.9-9.2,15.7
	c-0.7,0.9-1.5,1.9-2.7,2.1c-2.2,0.5-3.9-1.9-4.8-4c-1.1-2.8-2-5.7-2.5-8.6c-0.1-1.3-0.5-2.5-1-3.6c-1.3-2.4-4.6-4.6-6.6-6.4
	C838.6,348.5,835.9,348.3,834.1,346.3z"/>
<ellipse class="st22" cx="847.9" cy="359.3" rx="1.3" ry="2.8"/>
<path class="st5" d="M855.7,433.9c0,0-0.9,2.6-5.2,2.1c-4.3-0.4-16.8-1.3-16.8,0"/>
<path class="st26" d="M821.5,579.3c-0.6-0.5-1-1.1-1.3-1.8c-0.1,0.6,0.2,1.3,1.3,2.2c5.6,5.2,38.3,6,38.3,6s0-0.2,0-0.4
	C859.5,585.4,827.1,584.5,821.5,579.3z"/>
<path class="st26" d="M795.7,550.5c-6.4,1.7-34.4-9.5-35.7-10.7c-0.2-0.2-0.3-0.4-0.4-0.6c-0.2,0.5,0,1.1,0.4,1.5
	c1.3,1.3,29.2,12.5,35.7,10.7c3.3-0.9,4.1-5,4-8.9C799.6,546.1,798.8,549.7,795.7,550.5z"/>
<path class="st27" d="M602.3,504.7c-1.6-0.1-2.9,0.7-4.3,1.3c-3.9,1.8-8.5,2.2-13.1,1.1c-3.3-0.8-7.4-2.1-9.3,0.3
	c-0.5,0.6-0.7,1.3-1.2,1.9c-2.1,2.4-6.5-0.2-9.9,0.2c-2.5,0.3-4.2,2.2-5.7,4.1c-1.9,2.3-3.8,4.7-3.9,7.9c0,0.9,0.1,1.8-0.2,2.5
	c-0.5,1.8-2.6,2.4-3.3,4.1c-0.8,2.3,1.6,5.3,4.1,6c2.5,0.8,5,0,7.3-0.6c6.2-1.8,12.9-3.2,19.8-1.8c6.6,1.3,14,5.1,19.2,1.9
	c2.2-1.4,3.8-4,6.5-4.3c1.3-0.2,2.7,0.2,4,0.2c3.9-0.2,6.1-4.4,5.5-8.5C616.8,514.8,608.8,505.2,602.3,504.7z"/>
<g>
	<g transform="matrix(0.6474237715049307,0,0,0.6474237715049307,-11.349305006123878,-2.845427940252705)">
		<path class="st20" d="M1101.2,672.4c9.2-9.1,10.5-16.8,7.4-20.5c0,0,23.4,9.6,9.6,31.9c-2.4,3.8-8.2,8.3-5.2,17.5
			C1113.1,701.3,1083.6,693,1101.2,672.4z"/>
		<path class="st20" d="M1115.4,700.8c-0.5-1.9-2.7-5.9,4.1-14.1c3.7-4.3,6.2-13.8,4.9-16.1c0,0,11.7,15.4-1.8,24.7
			C1114.6,700.9,1115.4,700.8,1115.4,700.8z"/>
	</g>
</g>
</svg>
