<?xml version="1.0" encoding="utf-8"?>
<!-- Generator: Adobe Illustrator 23.0.1, SVG Export Plug-In . SVG Version: 6.00 Build 0)  -->
<svg version="1.1" id="Layer_1" xmlns="http://www.w3.org/2000/svg" xmlns:xlink="http://www.w3.org/1999/xlink" x="0px" y="0px"
	 viewBox="0 0 682 729" style="enable-background:new 0 0 682 729;" xml:space="preserve">
<style type="text/css">
	.st0{opacity:5.000000e-02;}
	.st1{opacity:0.5;}
	.st2{fill:url(#SVGID_1_);}
	.st3{fill:url(#SVGID_2_);}
	.st4{fill:#535461;}
	.st5{fill:#F7931A;}
	.st6{fill:#FDA57D;}
	.st7{fill:#F55F44;}
	.st8{opacity:5.000000e-02;enable-background:new    ;}
	.st9{fill:#5A2F32;}
	.st10{fill:#CCCCCC;}
	.st11{fill:#E6E6E6;}
	.st12{fill:url(#SVGID_3_);}
	.st13{fill:url(#SVGID_4_);}
	.st14{opacity:0.2;fill:#535461;enable-background:new    ;}
	.st15{fill:url(#SVGID_5_);}
	.st16{fill:#E0A0E3;}
	.st17{fill:#4D8AF0;}
	.st18{fill:#E0E0E0;}
	.st19{opacity:0.7;}
	.st20{fill:url(#SVGID_6_);}
	.st21{opacity:0.1;}
	.st22{fill:url(#SVGID_7_);}
	.st23{fill:url(#SVGID_8_);}
	.st24{fill:url(#SVGID_9_);}
	.st25{fill:url(#SVGID_10_);}
	.st26{fill:url(#SVGID_11_);}
	.st27{fill:url(#SVGID_12_);}
	.st28{fill:url(#SVGID_13_);}
	.st29{fill:url(#SVGID_14_);}
	.st30{fill:url(#SVGID_15_);}
	.st31{fill:url(#SVGID_16_);}
	.st32{fill:url(#SVGID_17_);}
	.st33{fill:url(#SVGID_18_);}
	.st34{fill:url(#SVGID_19_);}
	.st35{font-family:'ArialMT';}
	.st36{font-size:11.84px;}
	.st37{fill:url(#SVGID_20_);}
	.st38{fill:url(#SVGID_21_);}
	.st39{fill:url(#SVGID_22_);}
	.st40{fill:url(#SVGID_23_);}
	.st41{fill:url(#SVGID_24_);}
	.st42{fill:url(#SVGID_25_);}
	.st43{opacity:0.1;enable-background:new    ;}
	.st44{fill:#FDB797;}
	.st45{fill:#814E4D;}
	.st46{fill:#333333;}
</style>
<title>bitcoin2</title>
<polygon points="128.1,116.1 139.2,111.8 142.1,118.1 143.4,133.2 141,135 "/>
<polygon points="181.8,145.8 169.2,153.1 182.4,172.6 185.5,170.4 187.4,154.9 "/>
<g class="st0">
	<path d="M208.2,54.7c-2.5,3.8-4.9,8-5.6,10.9l2-1.4C204.4,62.1,206,58.5,208.2,54.7z"/>
	<path d="M219.6,107l1.4-29.2c-31,19.7-76.4,37.6-76.4,37.6l-2.2,3.5c0,0,45.4-17.9,76.4-37.6l-1.3,27.5L219.6,107z"/>
</g>
<g class="st1">
	
		<linearGradient id="SVGID_1_" gradientUnits="userSpaceOnUse" x1="133.135" y1="595.58" x2="133.135" y2="619.45" gradientTransform="matrix(1 0 0 -1 0 732)">
		<stop  offset="0" style="stop-color:#808080;stop-opacity:0.25"/>
		<stop  offset="0.54" style="stop-color:#808080;stop-opacity:0.12"/>
		<stop  offset="1" style="stop-color:#808080;stop-opacity:0.1"/>
	</linearGradient>
	<polygon class="st2" points="138.5,136.4 141,134.6 139.6,119 136.6,112.6 125.3,116.9 	"/>
	
		<linearGradient id="SVGID_2_" gradientUnits="userSpaceOnUse" x1="489.1364" y1="471.37" x2="489.1364" y2="646.5172" gradientTransform="matrix(1 0 0 -1 -259 646.52)">
		<stop  offset="0" style="stop-color:#808080;stop-opacity:0.25"/>
		<stop  offset="0.54" style="stop-color:#808080;stop-opacity:0.12"/>
		<stop  offset="1" style="stop-color:#808080;stop-opacity:0.1"/>
	</linearGradient>
	<path class="st3" d="M311.6,1.9c-6.9-3.3-12.1-1.8-15.7,1c-3.2,2.4-5.8,5.7-7.3,9.4l-1,2.7l0,0l-4.7,3.4l-1.5-3.3
		c0,0-16.6-29.4-65.5,28.1l-0.2-0.2c0,0-4.2,5.1-8,10.8l-0.5,0.8L207,55l-0.3,0.5l-0.3,0.4l-0.4,0.6l-0.3,0.5l-0.4,0.6l-0.3,0.4
		l-0.3,0.4l-0.3,0.4l-0.3,0.5l-0.4,0.7l-0.2,0.4l-0.2,0.5l-0.2,0.4l-0.2,0.5l-0.1,0.3c-0.1,0.3-0.2,0.6-0.3,0.8l-0.1,0.3l-0.2,0.4
		l-0.1,0.3c-0.1,0.2-0.1,0.4-0.2,0.7c0,0.1-0.1,0.2-0.1,0.3l0,0c-0.2,0.7-0.3,1.4-0.2,2.2l-65.1,45.3l3.3,7.3
		c0,0,46.8-18.5,78.6-38.8l-1.3,28.4l0,0l-0.1,1.8c0,0-29.1,24.1-36.7,36.4l-13,7.5l13.6,20.1l3.2-2.3l2-16l53.4-42.7
		c0,0,10.1-18.5,10.3-34l2.2,8.4c0,0,4.7,13.1,7.9,13.6s3.3-10.1,1-13.3S260,64.5,260,64.5l0.6-4.3l8.4-6.1l0.3-0.3l0.4,2.7l1.7,0.1
		v0.1l0,0l0.1,0.8l0,0l1.1,20.2l5.9,22.8c0,0,4.7,13.1,8,13.6s3.3-10.1,1-13.3s-1.2-24.3-1.2-24.3l2.4-17.6l0,0v-0.3l0-0.4l4.8,0.4
		c0,0,5-17.2-3.4-24.7l-1.5-3.3l3.1-2.3l0,0l0.6-0.4c5.5,5.4,14.3,5.4,19.8,0c2.3,0.2,4.7-0.4,6.6-1.8l1.2-0.9
		c1.3-0.8,2.5-1.8,3.5-3C324.3,20.7,322.3,7,311.6,1.9z"/>
</g>
<path class="st4" d="M216,44.3c0,0-14.2,17.4-13.6,23.5l-63.2,44.1l3.2,7.1c0,0,45.4-17.9,76.4-37.6l-1.4,29.3
	c0,0-28.3,23.4-35.6,35.3l5.6,9.1l51.9-41.5c0,0,15.4-28.1,8-43.5L216,44.3z"/>
<path class="st5" d="M671.8,470.5c-45.5,182.7-230.6,293.9-413.3,248.3S-35.4,488.2,10.2,305.5S240.8,11.6,423.5,57.2
	S717.3,287.8,671.8,470.5z"/>
<path class="st6" d="M269.5,47.2l1.6,30.8l5.7,22.2c0,0,4.5,12.7,7.7,13.2s3.2-9.9,1-12.9s-1.2-23.6-1.2-23.6l3.6-26.2L269.5,47.2z"
	/>
<path class="st7" d="M267.6,52.4l0.8,5l23.1,2c0,0,4.8-16.7-3.3-24L267.6,52.4z"/>
<path class="st7" d="M288.3,35.5l-8.5-18.3c0,0-16.2-28.7-63.9,27.6l31.5,25.1l20.4-14.8L288.3,35.5z"/>
<path class="st6" d="M295,10.3l7.6,10.5l0,0L286,32.9c-2.4,1.8-5.8,1.2-7.5-1.2l0,0l-1.3-1.7c-1.8-2.4-1.2-5.8,1.2-7.5c0,0,0,0,0,0
	L295,10.3L295,10.3z"/>
<path class="st8" d="M286.2,16.8c-1.3,4.8,0.1,9.9,3.6,13.3l7.8-5.7l-7.6-10.5L286.2,16.8z"/>
<ellipse transform="matrix(0.8089 -0.5879 0.5879 0.8089 45.6595 180.1889)" class="st6" cx="300" cy="19.9" rx="13.7" ry="13.7"/>
<path class="st8" d="M293.7,11.8l-7.9,5.3l1-2.6c0,0,6.5-17,21.7-9.7c10.4,5,12.4,18.3,11.6,19.8c-1.2,1.3-2.5,2.4-4,3.3
	c-4,2.9-9.6,2.2-12.8-1.6c-2.7-3.2-7.3-9.7-6.5-13.5l0,0C296,11.4,295,10.8,293.7,11.8L293.7,11.8z"/>
<path class="st9" d="M294.3,11.3l-7.9,5.3l1-2.6c0,0,6.5-17,21.7-9.7c10.4,5,12.4,18.3,11.6,19.8c-1.2,1.3-2.5,2.4-4,3.3
	c-4,2.9-9.6,2.2-12.8-1.6c-2.7-3.2-7.3-9.7-6.5-13.5l0,0C296.6,10.9,295.6,10.4,294.3,11.3L294.3,11.3z"/>
<ellipse transform="matrix(0.8083 -0.5888 0.5888 0.8083 50.299 176.4254)" class="st6" cx="296.1" cy="11" rx="3.1" ry="1.5"/>
<polygon class="st8" points="265,54.7 268.7,51.6 268.7,56.5 267.9,54.6 "/>
<polygon class="st8" points="270,57.7 270.1,58.4 286.8,59.7 286.9,59 "/>
<path class="st6" d="M244.1,35.6l1.6,30.8l5.7,22.1c0,0,4.5,12.7,7.7,13.2s3.2-9.9,1-12.9S259,65.2,259,65.2l3.6-26.2L244.1,35.6z"
	/>
<rect x="378.5" y="270.8" class="st10" width="1.7" height="1.7"/>
<path class="st4" d="M377.4,273.4h4.3c1.3,0,2.4,1.1,2.4,2.4l0,0v14.5l0,0h-9l0,0v-14.5C375,274.4,376.1,273.4,377.4,273.4z"/>
<rect x="376.7" y="272.2" class="st5" width="5.2" height="1.2"/>
<rect x="375" y="280.1" class="st5" width="9" height="3.5"/>
<path class="st11" d="M380.2,271.1v0.9c-0.3,0-0.6-0.2-0.6-0.4S379.9,271.1,380.2,271.1z"/>
<path class="st8" d="M245.9,20.6c0,0-3.8,10.3-2.2,13.8"/>
<polygon class="st8" points="244.1,35.1 244.1,37 262.5,40.1 262.7,38.5 "/>
<polygon class="st7" points="248.3,19.4 244.1,35.6 262.6,39.1 267.5,18.6 "/>
<g class="st1">
	
		<linearGradient id="SVGID_3_" gradientUnits="userSpaceOnUse" x1="513.7999" y1="543.5835" x2="513.7999" y2="570.91" gradientTransform="matrix(1 0 0 -1 -259 646.52)">
		<stop  offset="0" style="stop-color:#808080;stop-opacity:0.25"/>
		<stop  offset="0.54" style="stop-color:#808080;stop-opacity:0.12"/>
		<stop  offset="1" style="stop-color:#808080;stop-opacity:0.1"/>
	</linearGradient>
	<path class="st12" d="M247.7,75.6l3.6,13.8c0,0,4.7,13,8,13.5s3.3-10.1,1-13.2c-1.2-1.6-1.5-8.2-1.5-14.1H247.7z"/>
</g>
<path class="st6" d="M248,75.6l3.5,13.5c0,0,4.5,12.7,7.7,13.2s3.2-9.9,1-12.9c-1.2-1.6-1.4-8.1-1.4-13.8H248z"/>
<g class="st1">
	
		<linearGradient id="SVGID_4_" gradientUnits="userSpaceOnUse" x1="538.0352" y1="531.3817" x2="538.0352" y2="571.48" gradientTransform="matrix(1 0 0 -1 -259 646.52)">
		<stop  offset="0" style="stop-color:#808080;stop-opacity:0.25"/>
		<stop  offset="0.54" style="stop-color:#808080;stop-opacity:0.12"/>
		<stop  offset="1" style="stop-color:#808080;stop-opacity:0.1"/>
	</linearGradient>
	<path class="st13" d="M285.1,75h-14.6l0.2,3.7l6.1,22.8c0,0,4.8,13.1,8.2,13.6s3.4-10.1,1-13.3s-1.2-24.3-1.2-24.3L285.1,75z"/>
</g>
<path class="st6" d="M284.7,75h-13.8l0.2,3.6l5.7,22.2c0,0,4.5,12.7,7.7,13.2s3.2-9.9,1-12.9s-1.2-23.6-1.2-23.6L284.7,75z"/>
<polygon class="st14" points="380,271 405,266 406,278 380,272 "/>
<g class="st1">
	
		<linearGradient id="SVGID_5_" gradientUnits="userSpaceOnUse" x1="521.395" y1="340.92" x2="521.395" y2="452.19" gradientTransform="matrix(1 0 0 -1 -259 646.52)">
		<stop  offset="0" style="stop-color:#808080;stop-opacity:0.25"/>
		<stop  offset="0.54" style="stop-color:#808080;stop-opacity:0.12"/>
		<stop  offset="1" style="stop-color:#808080;stop-opacity:0.1"/>
	</linearGradient>
	<path class="st15" d="M342.3,274.7l0.7,0.3l0,0l22,9.5l28-33.2c0,0,4.3-4.8-0.8-8s-8.2,5.2-8.2,5.2l-21.5,23.1l-18.3-9.1l0.3-1.9
		l-16.7-9.6c-0.3-0.6-0.7-1.2-1.1-1.8l-0.2-0.5l-0.8-0.7c-0.2-0.2-0.3-0.3-0.5-0.5l2.8-3c7.7,2.7,16.2-1.4,18.9-9.1
		c0.3-0.8,0.5-1.7,0.7-2.6c1.3,0.2,2.6,0.2,3.9,0c3.4-0.7,6.3-3.1,7.7-6.3c-0.1,0.2-0.3,0.4-0.6,0.4c0.2-0.4,0.4-0.8,0.6-1.2
		c-0.6,1.4-5.9-0.5-6.7-1c-2.4-1.3-3.7-3.2-5-5.6c-2.5-4.7-7.1-6.4-12.3-6.8c-4-0.4-8,0.1-11.7,1.5c-3.8,1.4-6.7,4.4-8.2,8.1
		c-0.4,1.3-0.6,2.6-0.6,4c-0.2,2.9,1,5.7,3.1,7.7c0.2,0.2,0.4,0.3,0.6,0.4c0.1,0.4,0.2,0.9,0.4,1.3l-0.7,0.8l0,0l-4.7,5.1L313,241
		l-49.9,7.5v0.1c-1.7-1.1-9.2-4.9-28,0.3c-7.1,2-18.9,1.8-31.6,0.6c-8.9-11-14.6-45.3-14.6-45.3l-2.2-9.7l-29.1,6.7
		c0,0,13.4,3,15.6,6.7c3.4,1.1,5.5,26.6,6.3,38.6c-17.4-2.7-31.7-5.8-31.7-5.8l-10.4-3.7l-7.5,26.1c0,0,8.2-9,15.6-9.7
		c0,0,37.3,17.9,64.8,14.2c10.7-1.5,21.1,3.1,29.8,4.5c7.6,1.3,15.3,2,23,2.2l0.1,8.2c0,0,30.7-1.3,50.8-7.7
		c1.5,4.1,2.8,7.1,3.2,7.4l3.7-1.8l20.6,25.3l40.2-16.4c0,0,6-2.2,3-7.5s-9.7,0.8-9.7,0.8l-29.8,10.5l-12.6-17.4l0,0l-0.5-0.7
		l2.6-1.3c0,0-0.1-0.4-0.2-1.1l6.9,5.5L342.3,274.7z"/>
</g>
<polygon class="st6" points="318,253.3 308.8,244.8 324,228.3 333.2,236.8 "/>
<path class="st8" d="M323.3,229l-6.7,7.3c1.5,4.2,4.7,7.4,8.9,8.9l7-7.6L323.3,229z"/>
<path class="st6" d="M325.3,267.6l36.9,15.9l27.3-32.3c0,0,4.1-4.6-0.8-7.8s-8,5-8,5l-21,22.5l-27-13.5L325.3,267.6z"/>
<polygon class="st16" points="323.3,249.2 342.2,260.1 339.6,277.2 321.9,263 "/>
<ellipse class="st6" cx="330.9" cy="230.7" rx="14.5" ry="14.5"/>
<path class="st16" d="M319,243.4l-7.3-2.2l-48.6,7.3l0.4,33c0,0,59.1-2.5,65.6-17.8l-4.3-15.2L319,243.4z"/>
<polygon class="st8" points="322.4,263.5 339.6,277.2 340.4,271.4 323.3,255.1 "/>
<path class="st17" d="M263.5,248.9c0,0-6.5-5.8-27.5,0s-84.8-8-84.8-8l-2.2,12.4c0,0,36.2,17.4,63.1,13.8c10.4-1.4,20.5,3,29,4.4
	c7.4,1.2,14.9,1.9,22.5,2.1V248.9z"/>
<path class="st4" d="M151.2,240.9l-10.2-3.6l-7.3,25.4c0,0,8-8.7,15.2-9.4L151.2,240.9z"/>
<path class="st17" d="M175.8,208.9l15.2-3.6c0,0,7.3,43.6,18.1,47.2h-26.8C182.3,252.5,180.1,210.4,175.8,208.9z"/>
<path class="st4" d="M191,205.3l-2.2-9.4l-28.3,6.5c0,0,13,2.9,15.2,6.5L191,205.3z"/>
<path class="st8" d="M333.2,213.9c-3.8-0.4-7.7,0.1-11.4,1.4c-3.7,1.4-6.6,4.3-8,7.9c-1.3,3.6-0.5,8.1,2.5,10.6
	c0.7,0.7,1.6,1.1,2.5,1.2c1.5,0.1,2.8-1.1,4-2c2.2-1.8,4.7-3.4,7.3-4.6c2.2-1,4.9-1.8,7-0.5c0.9,0.7,1.8,1.5,2.5,2.4
	c4,4,10.5,4,14.6,0c0.9-1,1.7-2.1,2.2-3.3c-0.6,1.4-5.7-0.5-6.5-0.9c-2.4-1.3-3.6-3.1-4.8-5.4C342.7,216,338.3,214.3,333.2,213.9z"
	/>
<path d="M333.2,213.2c-3.8-0.4-7.7,0.1-11.4,1.4c-3.7,1.4-6.6,4.3-8,7.9c-1.3,3.6-0.5,8.1,2.5,10.6c0.7,0.7,1.6,1.1,2.5,1.2
	c1.5,0.1,2.8-1.1,4-2c2.2-1.8,4.7-3.4,7.3-4.6c2.2-1,4.9-1.8,7-0.5c0.9,0.7,1.8,1.5,2.5,2.4c4,4,10.5,4,14.6,0
	c0.9-1,1.7-2.1,2.2-3.3c-0.6,1.4-5.7-0.5-6.5-0.9c-2.4-1.3-3.6-3.1-4.8-5.4C342.7,215.3,338.3,213.6,333.2,213.2z"/>
<ellipse transform="matrix(0.2309 -0.973 0.973 0.2309 27.8165 493.7238)" class="st6" cx="326.2" cy="229.3" rx="2.2" ry="1.1"/>
<polygon class="st8" points="319.6,279.5 320.1,280 331,274.8 330.5,274.1 "/>
<polygon class="st8" points="341.9,262 340.1,273.9 340.8,274.3 342.2,262.1 "/>
<rect x="275.8" y="231.4" class="st18" width="8.7" height="58.8"/>
<rect x="225.2" y="91.7" transform="matrix(0.3185 -0.9479 0.9479 0.3185 82.5099 306.7775)" class="st18" width="58.8" height="8.7"/>
<polygon class="st18" points="281.6,238 278.7,238 278.7,95.9 281.6,96.1 "/>
<path class="st6" d="M314.3,272.8l25.4,31.2l39.1-16c0,0,5.8-2.2,2.9-7.3s-9.4,0.7-9.4,0.7l-29,10.2l-17.6-24.5L314.3,272.8z"/>
<path class="st16" d="M303.7,247.1c0,0,10.9,33.4,12.3,34.1l17-8.4c0,0-4.8-22.5-10.2-26S304.5,244.1,303.7,247.1z"/>
<path class="st8" d="M306.8,256.4c0,0-0.6,12.8,3.1,15"/>
<polygon class="st18" points="278.8,96.1 265.7,76.7 267,72.7 281.6,96.1 "/>
<rect x="339.8" y="236.6" transform="matrix(0.5534 -0.8329 0.8329 0.5534 -44.9913 391.6273)" width="5.7" height="2.3"/>
<rect x="334.7" y="223.2" transform="matrix(0.5537 -0.8327 0.8327 0.5537 -43.2308 382.5429)" width="1.1" height="16.8"/>
<g class="st19">
	
		<linearGradient id="SVGID_6_" gradientUnits="userSpaceOnUse" x1="567.94" y1="104.68" x2="604.26" y2="104.68" gradientTransform="matrix(1 0 0 -1 0 732)">
		<stop  offset="0" style="stop-color:#808080;stop-opacity:0.25"/>
		<stop  offset="0.54" style="stop-color:#808080;stop-opacity:0.12"/>
		<stop  offset="1" style="stop-color:#808080;stop-opacity:0.1"/>
	</linearGradient>
	<rect x="567.9" y="613.9" class="st20" width="36.3" height="26.8"/>
	<g class="st21">
		
			<linearGradient id="SVGID_7_" gradientUnits="userSpaceOnUse" x1="826.94" y1="28.075" x2="863.2599" y2="28.075" gradientTransform="matrix(1 0 0 -1 -259 646.52)">
			<stop  offset="0" style="stop-color:#808080;stop-opacity:0.25"/>
			<stop  offset="0.54" style="stop-color:#808080;stop-opacity:0.12"/>
			<stop  offset="1" style="stop-color:#808080;stop-opacity:0.1"/>
		</linearGradient>
		<path class="st22" d="M567.9,621c0,0,13.5,1.6,18.2,1.6s18.2-1.6,18.2-1.6v-6.7h-36.3V621z"/>
	</g>
	
		<linearGradient id="SVGID_8_" gradientUnits="userSpaceOnUse" x1="826.9401" y1="47.425" x2="863.26" y2="47.425" gradientTransform="matrix(1 0 0 -1 -259 646.52)">
		<stop  offset="0" style="stop-color:#808080;stop-opacity:0.25"/>
		<stop  offset="0.54" style="stop-color:#808080;stop-opacity:0.12"/>
		<stop  offset="1" style="stop-color:#808080;stop-opacity:0.1"/>
	</linearGradient>
	<path class="st23" d="M604.3,620.6c0,0-13.5,1.6-18.2,1.6s-18.2-1.6-18.2-1.6v-26.5c0-10,8.1-18.2,18.2-18.2l0,0
		c10,0,18.2,8.1,18.2,18.2V620.6z"/>
	
		<linearGradient id="SVGID_9_" gradientUnits="userSpaceOnUse" x1="840.7599" y1="72.485" x2="849.4399" y2="72.485" gradientTransform="matrix(1 0 0 -1 -259 646.52)">
		<stop  offset="0" style="stop-color:#808080;stop-opacity:0.25"/>
		<stop  offset="0.54" style="stop-color:#808080;stop-opacity:0.12"/>
		<stop  offset="1" style="stop-color:#808080;stop-opacity:0.1"/>
	</linearGradient>
	<path class="st24" d="M586.1,581.1L586.1,581.1c-2.4,0-4.3-1.9-4.3-4.3v0v-9.9h8.7v9.9C590.4,579.2,588.5,581.1,586.1,581.1z"/>
	
		<linearGradient id="SVGID_10_" gradientUnits="userSpaceOnUse" x1="567.94" y1="56.515" x2="580.97" y2="56.515" gradientTransform="matrix(1 0 0 -1 0 732)">
		<stop  offset="0" style="stop-color:#808080;stop-opacity:0.25"/>
		<stop  offset="0.54" style="stop-color:#808080;stop-opacity:0.12"/>
		<stop  offset="1" style="stop-color:#808080;stop-opacity:0.1"/>
	</linearGradient>
	<rect x="567.9" y="631.3" class="st25" width="13" height="88.4"/>
	
		<linearGradient id="SVGID_11_" gradientUnits="userSpaceOnUse" x1="591.23" y1="56.515" x2="604.26" y2="56.515" gradientTransform="matrix(1 0 0 -1 0 732)">
		<stop  offset="0" style="stop-color:#808080;stop-opacity:0.25"/>
		<stop  offset="0.54" style="stop-color:#808080;stop-opacity:0.12"/>
		<stop  offset="1" style="stop-color:#808080;stop-opacity:0.1"/>
	</linearGradient>
	<rect x="591.2" y="631.3" class="st26" width="13" height="88.4"/>
	<g class="st21">
		
			<linearGradient id="SVGID_12_" gradientUnits="userSpaceOnUse" x1="840.76" y1="75.837" x2="849.44" y2="75.837" gradientTransform="matrix(1 0 0 -1 -259 646.52)">
			<stop  offset="0" style="stop-color:#808080;stop-opacity:0.25"/>
			<stop  offset="0.54" style="stop-color:#808080;stop-opacity:0.12"/>
			<stop  offset="1" style="stop-color:#808080;stop-opacity:0.1"/>
		</linearGradient>
		<path class="st27" d="M581.8,573.5c2.9,0.7,5.8,0.7,8.7,0v-6.2h-8.7V573.5z"/>
	</g>
	
		<linearGradient id="SVGID_13_" gradientUnits="userSpaceOnUse" x1="567.15" y1="180.87" x2="605.05" y2="180.87" gradientTransform="matrix(1 0 0 -1 0 732)">
		<stop  offset="0" style="stop-color:#808080;stop-opacity:0.25"/>
		<stop  offset="0.54" style="stop-color:#808080;stop-opacity:0.12"/>
		<stop  offset="1" style="stop-color:#808080;stop-opacity:0.1"/>
	</linearGradient>
	<circle class="st28" cx="586.1" cy="551.1" r="19"/>
	
		<linearGradient id="SVGID_14_" gradientUnits="userSpaceOnUse" x1="567.94" y1="176.52" x2="604.2599" y2="176.52" gradientTransform="matrix(1 0 0 -1 0 732)">
		<stop  offset="0" style="stop-color:#808080;stop-opacity:0.25"/>
		<stop  offset="0.54" style="stop-color:#808080;stop-opacity:0.12"/>
		<stop  offset="1" style="stop-color:#808080;stop-opacity:0.1"/>
	</linearGradient>
	<circle class="st29" cx="586.1" cy="555.5" r="18.2"/>
	<g class="st21">
		
			<linearGradient id="SVGID_15_" gradientUnits="userSpaceOnUse" x1="831.2772" y1="103.52" x2="863.0025" y2="103.52" gradientTransform="matrix(1 0 0 -1 -259 646.52)">
			<stop  offset="0" style="stop-color:#808080;stop-opacity:0.25"/>
			<stop  offset="0.54" style="stop-color:#808080;stop-opacity:0.12"/>
			<stop  offset="1" style="stop-color:#808080;stop-opacity:0.1"/>
		</linearGradient>
		<path class="st30" d="M575.1,546.4c1,0.5,2.1,0.9,3.2,1c4.7,0.6,9.4,0.1,13.8-1.5c0.8,1.8,2.4,3.1,4.3,3.7
			c1.9,0.5,3.9,0.7,5.8,0.7c0.4,0,0.9,0,1.3-0.2c0.9-0.6,0.5-1.9-0.1-2.9l-2.5-4.6c-0.7-1.4-1.6-2.7-2.7-3.8c-1.5-1.2-3.4-2-5.3-2.3
			c-4.5-0.9-9.1-0.7-13.5,0.5C574.7,538.1,568.6,542.5,575.1,546.4z"/>
	</g>
	
		<linearGradient id="SVGID_16_" gradientUnits="userSpaceOnUse" x1="831.2772" y1="103.91" x2="863.0025" y2="103.91" gradientTransform="matrix(1 0 0 -1 -259 646.52)">
		<stop  offset="0" style="stop-color:#808080;stop-opacity:0.25"/>
		<stop  offset="0.54" style="stop-color:#808080;stop-opacity:0.12"/>
		<stop  offset="1" style="stop-color:#808080;stop-opacity:0.1"/>
	</linearGradient>
	<path class="st31" d="M575.1,546c1,0.5,2.1,0.9,3.2,1c4.7,0.6,9.4,0.1,13.8-1.5c0.8,1.8,2.4,3.1,4.3,3.7c1.9,0.5,3.9,0.7,5.8,0.7
		c0.4,0,0.9,0,1.3-0.2c0.9-0.6,0.5-1.9-0.1-2.9l-2.5-4.6c-0.7-1.4-1.6-2.7-2.7-3.8c-1.5-1.2-3.4-2-5.3-2.3
		c-4.5-0.9-9.1-0.7-13.5,0.5C574.7,537.7,568.6,542.1,575.1,546z"/>
	
		<linearGradient id="SVGID_17_" gradientUnits="userSpaceOnUse" x1="602.48" y1="176.52" x2="605.64" y2="176.52" gradientTransform="matrix(1 0 0 -1 0 732)">
		<stop  offset="0" style="stop-color:#808080;stop-opacity:0.25"/>
		<stop  offset="0.54" style="stop-color:#808080;stop-opacity:0.12"/>
		<stop  offset="1" style="stop-color:#808080;stop-opacity:0.1"/>
	</linearGradient>
	<ellipse class="st32" cx="604.1" cy="555.5" rx="1.6" ry="3"/>
	
		<linearGradient id="SVGID_18_" gradientUnits="userSpaceOnUse" x1="566.56" y1="176.52" x2="569.72" y2="176.52" gradientTransform="matrix(1 0 0 -1 0 732)">
		<stop  offset="0" style="stop-color:#808080;stop-opacity:0.25"/>
		<stop  offset="0.54" style="stop-color:#808080;stop-opacity:0.12"/>
		<stop  offset="1" style="stop-color:#808080;stop-opacity:0.1"/>
	</linearGradient>
	<ellipse class="st33" cx="568.1" cy="555.5" rx="1.6" ry="3"/>
	
		<linearGradient id="SVGID_19_" gradientUnits="userSpaceOnUse" x1="630.31" y1="199.81" x2="639" y2="199.81" gradientTransform="matrix(1 0 0 -1 0 732)">
		<stop  offset="0" style="stop-color:#808080;stop-opacity:0.25"/>
		<stop  offset="0.54" style="stop-color:#808080;stop-opacity:0.12"/>
		<stop  offset="1" style="stop-color:#808080;stop-opacity:0.1"/>
	</linearGradient>
	<circle class="st34" cx="634.7" cy="532.2" r="4.3"/>
	<text transform="matrix(1 0 0 1 579.23 599.1)" class="st35 st36">00</text>
	
		<linearGradient id="SVGID_20_" gradientUnits="userSpaceOnUse" x1="827.34" y1="80.5496" x2="863.03" y2="80.5496" gradientTransform="matrix(1 0 0 -1 -259 646.52)">
		<stop  offset="0" style="stop-color:#808080;stop-opacity:0.25"/>
		<stop  offset="0.54" style="stop-color:#808080;stop-opacity:0.12"/>
		<stop  offset="1" style="stop-color:#808080;stop-opacity:0.1"/>
	</linearGradient>
	<path class="st37" d="M586.5,562.6c0,0-10.3,3.5-18.2-4.3c0,0,0.6,2.6,1.7,5.8c4.7,8.9,15.7,12.3,24.5,7.6
		c5.1-2.7,8.6-7.6,9.5-13.2C602.2,559.4,588.7,565.9,586.5,562.6z M586.1,567.3c-2,0-3.5-1.5-3.5-2.4s1.6-0.8,3.5-0.8
		s3.5-0.1,3.5,0.8S588.1,567.3,586.1,567.3L586.1,567.3z"/>
	
		<linearGradient id="SVGID_21_" gradientUnits="userSpaceOnUse" x1="854.75" y1="85.115" x2="895.24" y2="85.115" gradientTransform="matrix(1 0 0 -1 -259 646.52)">
		<stop  offset="0" style="stop-color:#808080;stop-opacity:0.25"/>
		<stop  offset="0.54" style="stop-color:#808080;stop-opacity:0.12"/>
		<stop  offset="1" style="stop-color:#808080;stop-opacity:0.1"/>
	</linearGradient>
	<path class="st38" d="M595.8,578.8c0,0,21.1-11.9,34.2-46.6l6.3,4c0,0-10.5,44.3-36.7,54.5L595.8,578.8z"/>
	
		<linearGradient id="SVGID_22_" gradientUnits="userSpaceOnUse" x1="533.2" y1="199.81" x2="541.89" y2="199.81" gradientTransform="matrix(1 0 0 -1 0 732)">
		<stop  offset="0" style="stop-color:#808080;stop-opacity:0.25"/>
		<stop  offset="0.54" style="stop-color:#808080;stop-opacity:0.12"/>
		<stop  offset="1" style="stop-color:#808080;stop-opacity:0.1"/>
	</linearGradient>
	<circle class="st39" cx="537.5" cy="532.2" r="4.3"/>
	
		<linearGradient id="SVGID_23_" gradientUnits="userSpaceOnUse" x1="795" y1="85.12" x2="835.45" y2="85.12" gradientTransform="matrix(1 0 0 -1 -259 646.52)">
		<stop  offset="0" style="stop-color:#808080;stop-opacity:0.25"/>
		<stop  offset="0.54" style="stop-color:#808080;stop-opacity:0.12"/>
		<stop  offset="1" style="stop-color:#808080;stop-opacity:0.1"/>
	</linearGradient>
	<path class="st40" d="M576.5,578.8c0,0-21.1-11.9-34.2-46.6l-6.3,3.9c0,0,10.5,44.3,36.7,54.5L576.5,578.8z"/>
	
		<linearGradient id="SVGID_24_" gradientUnits="userSpaceOnUse" x1="827.73" y1="-73.185" x2="839.18" y2="-73.185" gradientTransform="matrix(1 0 0 -1 -259 646.52)">
		<stop  offset="0" style="stop-color:#808080;stop-opacity:0.25"/>
		<stop  offset="0.54" style="stop-color:#808080;stop-opacity:0.12"/>
		<stop  offset="1" style="stop-color:#808080;stop-opacity:0.1"/>
	</linearGradient>
	<path class="st41" d="M580.2,722.9h-11.5v-0.6c0-3.2,2.6-5.7,5.7-5.7l0,0c3.2,0,5.7,2.6,5.7,5.7L580.2,722.9z"/>
	
		<linearGradient id="SVGID_25_" gradientUnits="userSpaceOnUse" x1="851.02" y1="-73.185" x2="862.47" y2="-73.185" gradientTransform="matrix(1 0 0 -1 -259 646.52)">
		<stop  offset="0" style="stop-color:#808080;stop-opacity:0.25"/>
		<stop  offset="0.54" style="stop-color:#808080;stop-opacity:0.12"/>
		<stop  offset="1" style="stop-color:#808080;stop-opacity:0.1"/>
	</linearGradient>
	<path class="st42" d="M603.5,722.9H592v-0.6c0-3.2,2.6-5.7,5.7-5.7l0,0c3.2,0,5.7,2.6,5.7,5.7L603.5,722.9z"/>
</g>
<rect x="568.5" y="614.2" class="st17" width="35.3" height="26.1"/>
<path class="st43" d="M568.5,621.1c0,0,13.2,1.5,17.6,1.5s17.6-1.5,17.6-1.5v-6.5h-35.3V621.1z"/>
<path class="st16" d="M603.7,620.8c0,0-13.2,1.5-17.6,1.5s-17.6-1.5-17.6-1.5v-25.7c0-9.7,7.9-17.6,17.6-17.6l0,0l0,0
	c9.7,0,17.6,7.9,17.6,17.6l0,0V620.8z"/>
<path class="st44" d="M581.9,568.6h8.4l0,0v9.6c0,2.3-1.9,4.2-4.2,4.2l0,0c-2.3,0-4.2-1.9-4.2-4.2L581.9,568.6L581.9,568.6z"/>
<rect x="568.5" y="631.1" class="st17" width="12.7" height="85.9"/>
<rect x="591.1" y="631.1" class="st17" width="12.7" height="85.9"/>
<path class="st43" d="M581.9,575c2.8,0.7,5.7,0.7,8.4,0v-6h-8.4V575z"/>
<circle class="st45" cx="586.1" cy="553.3" r="18.4"/>
<circle class="st44" cx="586.1" cy="557.5" r="17.6"/>
<path class="st43" d="M575.4,548.7c1,0.5,2,0.8,3.1,0.9c4.5,0.6,9.1,0.1,13.4-1.5c0.8,1.8,2.4,3.1,4.2,3.6c1.8,0.5,3.7,0.7,5.7,0.6
	c0.4,0,0.8,0,1.2-0.2c0.8-0.6,0.4-1.9-0.1-2.8l-2.5-4.5c-0.7-1.4-1.5-2.6-2.6-3.7c-1.5-1.2-3.3-1.9-5.1-2.2
	c-4.4-0.9-8.9-0.7-13.2,0.4C575,540.7,569.1,544.9,575.4,548.7z"/>
<path class="st45" d="M575.4,548.3c1,0.5,2,0.8,3.1,0.9c4.5,0.6,9.1,0.1,13.4-1.5c0.8,1.8,2.4,3.1,4.2,3.6c1.8,0.5,3.7,0.7,5.7,0.6
	c0.4,0,0.8,0,1.2-0.2c0.8-0.6,0.4-1.9-0.1-2.8l-2.5-4.5c-0.7-1.4-1.5-2.6-2.6-3.7c-1.5-1.2-3.3-1.9-5.1-2.2
	c-4.4-0.9-8.9-0.7-13.2,0.4C575,540.3,569.1,544.5,575.4,548.3z"/>
<ellipse class="st44" cx="603.5" cy="557.5" rx="1.5" ry="2.9"/>
<ellipse class="st44" cx="568.7" cy="557.5" rx="1.5" ry="2.9"/>
<circle class="st44" cx="633.3" cy="534.9" r="4.2"/>
<path class="st45" d="M586.5,564.4c0,0-10,3.5-17.6-4.2c0,0,0.6,2.5,1.7,5.6c4.5,8.6,15.2,11.9,23.8,7.3c4.9-2.6,8.3-7.3,9.2-12.8
	C601.7,561.3,588.6,567.6,586.5,564.4z M586.1,569c-1.9,0-3.5-1.5-3.5-2.3s1.5-0.8,3.5-0.8s3.5-0.1,3.5,0.8S588,569,586.1,569
	L586.1,569z"/>
<path class="st16" d="M595.5,580.1c0,0,20.5-11.5,33.2-45.3l6.1,3.8c0,0-10.2,43-35.7,52.9L595.5,580.1z"/>
<circle class="st44" cx="539" cy="534.9" r="4.2"/>
<path class="st16" d="M576.7,580.1c0,0-20.5-11.5-33.2-45.3l-6.1,3.8c0,0,10.2,43,35.7,52.9L576.7,580.1z"/>
<path class="st46" d="M574.8,713.9L574.8,713.9c3.1,0,5.6,2.5,5.6,5.6v0.5l0,0h-11.1l0,0v-0.6C569.3,716.4,571.7,713.9,574.8,713.9z
	"/>
<path class="st46" d="M597.4,713.9L597.4,713.9c3.1,0,5.6,2.5,5.6,5.6v0.5l0,0h-11.1l0,0v-0.6C591.9,716.4,594.4,713.9,597.4,713.9z
	"/>
</svg>
